<?xml version="1.0" encoding="UTF-8" standalone="yes"?><svg xmlns="http://www.w3.org/2000/svg" xmlns:xlink="http://www.w3.org/1999/xlink" height="700px" style="width:1083px;height:700px;" version="1.1" viewBox="0 0 1083 700" width="1083px"><defs><filter height="300%" id="f1" width="300%" x="-1" y="-1"><feGaussianBlur result="blurOut" stdDeviation="2.0"/><feColorMatrix in="blurOut" result="blurOut2" type="matrix" values="0 0 0 0 0 0 0 0 0 0 0 0 0 0 0 0 0 0 .4 0"/><feOffset dx="4.0" dy="4.0" in="blurOut2" result="blurOut3"/><feBlend in="SourceGraphic" in2="blurOut3" mode="normal"/></filter></defs><g><polygon fill="#FFFFFF" filter="url(#f1)" points="22,24,126,24,133,46.2969,493,46.2969,493,111,22,111,22,24" style="stroke: #000000; stroke-width: 2.0;"/><line style="stroke: #000000; stroke-width: 2.0;" x1="22" x2="133" y1="46.2969" y2="46.2969"/><text fill="#000000" font-family="sans-serif" font-size="14" font-weight="bold" lengthAdjust="spacingAndGlyphs" textLength="98" x="26" y="38.9951">Some Group</text><polygon fill="#FFFFFF" filter="url(#f1)" points="57,170,67,160,343,160,343,242,333,252,57,252,57,170" style="stroke: #000000; stroke-width: 2.0;"/><line style="stroke: #000000; stroke-width: 2.0;" x1="333" x2="342" y1="170" y2="161"/><line style="stroke: #000000; stroke-width: 2.0;" x1="57" x2="333" y1="170" y2="170"/><line style="stroke: #000000; stroke-width: 2.0;" x1="333" x2="333" y1="170" y2="252"/><text fill="#000000" font-family="sans-serif" font-size="14" font-weight="bold" lengthAdjust="spacingAndGlyphs" textLength="108" x="142" y="185.9951">Other Groups</text><path d="M370,191 C370,188 372,186 375,186 C378,186 380,188 380,191 C380,188 382,186 385,186 C388,186 390,188 390,191 C390,188 392,186 395,186 C398,186 400,188 400,191 C400,188 402,186 405,186 C408,186 410,188 410,191 C410,188 412,186 415,186 C418,186 420,188 420,191 C420,188 422,186 425,186 C428,186 430,188 430,191 C430,188 432,186 435,186 C438,186 440,188 440,191 C440,188 442,186 445,186 C448,186 450,188 450,191 C450,188 452,186 455,186 C458,186 460,188 460,191 C460,188 462,186 465,186 C468,186 470,188 470,191 C470,188 472,186 475,186 C478,186 480,188 480,191 C480,188 482,186 485,186 C488,186 490,188 490,191 C493,191 495,193 495,196 C495,199 493,201 490,201 C493,201 495,203 495,206 C495,209 493,211 490,211 C493,211 495,213 495,216 C495,219 493,221 490,221 C493,221 495,223 495,226 C495,229 493,231 490,231 C493,231 495,233 495,236 C495,239 493,241 490,241 C490,244 487,246 485,246 C482,246 480,244 480,241 C480,244 477,246 475,246 C472,246 470,244 470,241 C470,244 467,246 465,246 C462,246 460,244 460,241 C460,244 457,246 455,246 C452,246 450,244 450,241 C450,244 447,246 445,246 C442,246 440,244 440,241 C440,244 437,246 435,246 C432,246 430,244 430,241 C430,244 427,246 425,246 C422,246 420,244 420,241 C420,244 417,246 415,246 C412,246 410,244 410,241 C410,244 407,246 405,246 C402,246 400,244 400,241 C400,244 397,246 395,246 C392,246 390,244 390,241 C390,244 387,246 385,246 C382,246 380,244 380,241 C380,244 377,246 375,246 C372,246 370,244 370,241 C367,241 365,239 365,236 C365,233 367,231 370,231 C367,231 365,229 365,226 C365,223 367,221 370,221 C367,221 365,219 365,216 C365,213 367,211 370,211 C367,211 365,209 365,206 C365,203 367,201 370,201 C367,201 365,199 365,196 C365,193 367,191 370,191 " fill="#FFFFFF" filter="url(#f1)" style="stroke: #000000; stroke-width: 2.0;"/><path d="M332,311 C332,301 429.5,301 429.5,301 C429.5,301 527,301 527,311 L527,596 C527,606 429.5,606 429.5,606 C429.5,606 332,606 332,596 L332,311 " fill="#FFFFFF" filter="url(#f1)" style="stroke: #000000; stroke-width: 2.0;"/><path d="M332,311 C332,321 429.5,321 429.5,321 C429.5,321 527,321 527,311 " fill="none" style="stroke: #000000; stroke-width: 2.0;"/><text fill="#000000" font-family="sans-serif" font-size="14" font-weight="bold" lengthAdjust="spacingAndGlyphs" textLength="46" x="406.5" y="334.9951">MySql</text><polygon fill="#FFFFFF" filter="url(#f1)" points="356,359,493,359,500,381.2969,503,381.2969,503,446,356,446,356,359" style="stroke: #000000; stroke-width: 2.0;"/><line style="stroke: #000000; stroke-width: 2.0;" x1="356" x2="500" y1="381.2969" y2="381.2969"/><text fill="#000000" font-family="sans-serif" font-size="14" font-weight="bold" lengthAdjust="spacingAndGlyphs" textLength="131" x="360" y="373.9951">This is my folder</text><rect fill="#FFFFFF" filter="url(#f1)" height="87" style="stroke: #000000; stroke-width: 2.0;" width="108" x="375" y="495"/><path d="M414,496 L414,504.2969 L404,514.2969 L375,514.2969 " fill="#FFFFFF" style="stroke: #000000; stroke-width: 2.0;"/><text fill="#000000" font-family="sans-serif" font-size="14" font-weight="bold" lengthAdjust="spacingAndGlyphs" textLength="29" x="378" y="508.9951">Foo</text><ellipse cx="262" cy="69" fill="#FEFECE" filter="url(#f1)" rx="8" ry="8" style="stroke: #A80036; stroke-width: 2.0;"/><text fill="#000000" font-family="sans-serif" font-size="14" lengthAdjust="spacingAndGlyphs" textLength="37" x="243.5" y="90.9951">HTTP</text><rect fill="#FEFECE" filter="url(#f1)" height="36.2969" style="stroke: #A80036; stroke-width: 1.5;" width="135" x="38.5" y="59"/><rect fill="#FEFECE" height="5" style="stroke: #A80036; stroke-width: 1.5;" width="10" x="33.5" y="64"/><rect fill="#FEFECE" height="5" style="stroke: #A80036; stroke-width: 1.5;" width="10" x="33.5" y="85.2969"/><text fill="#000000" font-family="sans-serif" font-size="14" lengthAdjust="spacingAndGlyphs" textLength="115" x="48.5" y="81.9951">First Component</text><rect fill="#FEFECE" filter="url(#f1)" height="36.2969" style="stroke: #A80036; stroke-width: 1.5;" width="161" x="315.5" y="59"/><rect fill="#FEFECE" height="5" style="stroke: #A80036; stroke-width: 1.5;" width="10" x="310.5" y="64"/><rect fill="#FEFECE" height="5" style="stroke: #A80036; stroke-width: 1.5;" width="10" x="310.5" y="85.2969"/><text fill="#000000" font-family="sans-serif" font-size="14" lengthAdjust="spacingAndGlyphs" textLength="141" x="325.5" y="81.9951">Another Component</text><ellipse cx="86" cy="210" fill="#FEFECE" filter="url(#f1)" rx="8" ry="8" style="stroke: #A80036; stroke-width: 2.0;"/><text fill="#000000" font-family="sans-serif" font-size="14" lengthAdjust="spacingAndGlyphs" textLength="26" x="73" y="231.9951">FTP</text><rect fill="#FEFECE" filter="url(#f1)" height="36.2969" style="stroke: #A80036; stroke-width: 1.5;" width="159" x="168.5" y="200"/><rect fill="#FEFECE" height="5" style="stroke: #A80036; stroke-width: 1.5;" width="10" x="163.5" y="205"/><rect fill="#FEFECE" height="5" style="stroke: #A80036; stroke-width: 1.5;" width="10" x="163.5" y="226.2969"/><text fill="#000000" font-family="sans-serif" font-size="14" lengthAdjust="spacingAndGlyphs" textLength="139" x="178.5" y="222.9951">Second Component</text><rect fill="#FEFECE" filter="url(#f1)" height="36.2969" style="stroke: #A80036; stroke-width: 1.5;" width="91" x="383.5" y="200"/><rect fill="#FEFECE" height="5" style="stroke: #A80036; stroke-width: 1.5;" width="10" x="378.5" y="205"/><rect fill="#FEFECE" height="5" style="stroke: #A80036; stroke-width: 1.5;" width="10" x="378.5" y="226.2969"/><text fill="#000000" font-family="sans-serif" font-size="14" lengthAdjust="spacingAndGlyphs" textLength="71" x="393.5" y="222.9951">Example 1</text><rect fill="#FEFECE" filter="url(#f1)" height="36.2969" style="stroke: #A80036; stroke-width: 1.5;" width="76" x="391" y="394"/><rect fill="#FEFECE" height="5" style="stroke: #A80036; stroke-width: 1.5;" width="10" x="386" y="399"/><rect fill="#FEFECE" height="5" style="stroke: #A80036; stroke-width: 1.5;" width="10" x="386" y="420.2969"/><text fill="#000000" font-family="sans-serif" font-size="14" lengthAdjust="spacingAndGlyphs" textLength="56" x="401" y="416.9951">Folder 3</text><rect fill="#FEFECE" filter="url(#f1)" height="36.2969" style="stroke: #A80036; stroke-width: 1.5;" width="76" x="391" y="530"/><rect fill="#FEFECE" height="5" style="stroke: #A80036; stroke-width: 1.5;" width="10" x="386" y="535"/><rect fill="#FEFECE" height="5" style="stroke: #A80036; stroke-width: 1.5;" width="10" x="386" y="556.2969"/><text fill="#000000" font-family="sans-serif" font-size="14" lengthAdjust="spacingAndGlyphs" textLength="56" x="401" y="552.9951">Frame 4</text><ellipse cx="808" cy="69" fill="#FEFECE" filter="url(#f1)" rx="8" ry="8" style="stroke: #A80036; stroke-width: 2.0;"/><text fill="#000000" font-family="sans-serif" font-size="14" lengthAdjust="spacingAndGlyphs" textLength="75" x="770.5" y="90.9951">Resources</text><ellipse cx="655" cy="210" fill="#FEFECE" filter="url(#f1)" rx="8" ry="8" style="stroke: #A80036; stroke-width: 2.0;"/><text fill="#000000" font-family="sans-serif" font-size="14" lengthAdjust="spacingAndGlyphs" textLength="51" x="629.5" y="231.9951">Actions</text><ellipse cx="749" cy="210" fill="#FEFECE" filter="url(#f1)" rx="8" ry="8" style="stroke: #A80036; stroke-width: 2.0;"/><text fill="#000000" font-family="sans-serif" font-size="14" lengthAdjust="spacingAndGlyphs" textLength="67" x="715.5" y="231.9951">Resource</text><ellipse cx="866" cy="210" fill="#FEFECE" filter="url(#f1)" rx="8" ry="8" style="stroke: #A80036; stroke-width: 2.0;"/><text fill="#000000" font-family="sans-serif" font-size="14" lengthAdjust="spacingAndGlyphs" textLength="97" x="817.5" y="231.9951">UriParameters</text><ellipse cx="1016" cy="210" fill="#FEFECE" filter="url(#f1)" rx="8" ry="8" style="stroke: #A80036; stroke-width: 2.0;"/><text fill="#000000" font-family="sans-serif" font-size="14" lengthAdjust="spacingAndGlyphs" textLength="132" x="950" y="231.9951">BaseUriParameters</text><ellipse cx="603" cy="404" fill="#FEFECE" filter="url(#f1)" rx="8" ry="8" style="stroke: #A80036; stroke-width: 2.0;"/><text fill="#000000" font-family="sans-serif" font-size="14" lengthAdjust="spacingAndGlyphs" textLength="120" x="543" y="425.9951">QueryParameters</text><ellipse cx="738" cy="404" fill="#FEFECE" filter="url(#f1)" rx="8" ry="8" style="stroke: #A80036; stroke-width: 2.0;"/><text fill="#000000" font-family="sans-serif" font-size="14" lengthAdjust="spacingAndGlyphs" textLength="79" x="698.5" y="425.9951">Responses</text><ellipse cx="738" cy="540" fill="#FEFECE" filter="url(#f1)" rx="8" ry="8" style="stroke: #A80036; stroke-width: 2.0;"/><text fill="#000000" font-family="sans-serif" font-size="14" lengthAdjust="spacingAndGlyphs" textLength="71" x="702.5" y="561.9951">MimeType</text><ellipse cx="738" cy="678" fill="#FEFECE" filter="url(#f1)" rx="8" ry="8" style="stroke: #A80036; stroke-width: 2.0;"/><text fill="#000000" font-family="sans-serif" font-size="14" lengthAdjust="spacingAndGlyphs" textLength="114" x="681" y="699.9951">FormParameters</text><path d="M777.635,94.035 C754.119,107.432 721.669,128.147 698,152 C684.985,165.116 673.619,182.736 665.847,196.321 " fill="none" style="stroke: #A80036; stroke-width: 1.0;"/><polygon fill="#A80036" points="663.352,200.762,671.2489,194.8765,665.802,196.4034,664.2751,190.9565,663.352,200.762" style="stroke: #A80036; stroke-width: 1.0;"/><text fill="#000000" font-family="sans-serif" font-size="13" lengthAdjust="spacingAndGlyphs" textLength="31" x="726" y="140.0669">have</text><path d="M801.116,94.217 C790.37,119.536 769.614,168.434 757.797,196.274 " fill="none" style="stroke: #A80036; stroke-width: 1.0;"/><polygon fill="#A80036" points="755.84,200.886,763.0374,194.1631,757.7929,196.2831,755.6729,191.0386,755.84,200.886" style="stroke: #A80036; stroke-width: 1.0;"/><text fill="#000000" font-family="sans-serif" font-size="13" lengthAdjust="spacingAndGlyphs" textLength="31" x="786" y="140.0669">have</text><path d="M814.767,94.217 C825.288,119.432 845.567,168.03 857.207,195.928 " fill="none" style="stroke: #A80036; stroke-width: 1.0;"/><polygon fill="#A80036" points="859.276,200.886,859.5011,191.0397,857.3503,196.2717,852.1183,194.1209,859.276,200.886" style="stroke: #A80036; stroke-width: 1.0;"/><text fill="#000000" font-family="sans-serif" font-size="13" lengthAdjust="spacingAndGlyphs" textLength="31" x="836" y="140.0669">have</text><path d="M837.177,94.089 C862.702,108.473 900.513,130.537 932,152 C953.069,166.362 975.886,184.174 992.415,197.518 " fill="none" style="stroke: #A80036; stroke-width: 1.0;"/><polygon fill="#A80036" points="996.477,200.809,992.0042,192.0343,992.5928,197.6605,986.9667,198.2491,996.477,200.809" style="stroke: #A80036; stroke-width: 1.0;"/><text fill="#000000" font-family="sans-serif" font-size="13" lengthAdjust="spacingAndGlyphs" textLength="31" x="919" y="140.0669">have</text><path d="M645.662,235.322 C640.678,244.64 634.804,256.687 631,268 C616.881,309.986 608.977,361.438 605.391,389.763 " fill="none" style="stroke: #A80036; stroke-width: 1.0;"/><polygon fill="#A80036" points="604.771,394.775,609.8463,386.3345,605.3852,389.8129,601.9068,385.3518,604.771,394.775" style="stroke: #A80036; stroke-width: 1.0;"/><text fill="#000000" font-family="sans-serif" font-size="13" lengthAdjust="spacingAndGlyphs" textLength="31" x="632" y="281.0669">have</text><path d="M661.934,235.04 C676.886,269.628 712.159,351.224 728.89,389.926 " fill="none" style="stroke: #A80036; stroke-width: 1.0;"/><polygon fill="#A80036" points="731.028,394.871,731.1283,385.0227,729.0439,390.2815,723.7851,388.1972,731.028,394.871" style="stroke: #A80036; stroke-width: 1.0;"/><text fill="#000000" font-family="sans-serif" font-size="13" lengthAdjust="spacingAndGlyphs" textLength="31" x="682" y="281.0669">have</text><path d="M738,429.164 C738,453.309 738,498.824 738,525.671 " fill="none" style="stroke: #A80036; stroke-width: 1.0;"/><polygon fill="#A80036" points="738,530.779,742,521.779,738,525.779,734,521.779,738,530.779" style="stroke: #A80036; stroke-width: 1.0;"/><text fill="#000000" font-family="sans-serif" font-size="13" lengthAdjust="spacingAndGlyphs" textLength="31" x="739" y="475.0669">have</text><path d="M738,565.135 C738,589.674 738,636.3967 738,663.6972 " fill="none" style="stroke: #A80036; stroke-width: 1.0;"/><polygon fill="#A80036" points="738,668.8859,742,659.8859,738,663.8859,734,659.8859,738,668.8859" style="stroke: #A80036; stroke-width: 1.0;"/><text fill="#000000" font-family="sans-serif" font-size="13" lengthAdjust="spacingAndGlyphs" textLength="31" x="739" y="635.0669">have</text><path d="M243.362,77 C220.121,77 196.881,77 173.641,77 " fill="none" style="stroke: #A80036; stroke-width: 1.0;"/><path d="M99.2891,218 C122.332,218 145.374,218 168.416,218 " fill="none" style="stroke: #A80036; stroke-width: 1.0;"/><path d="M103.5476,95.044 C99.9099,120.326 93.0863,167.75 89.1048,195.422 " fill="none" style="stroke: #A80036; stroke-width: 1.0;"/><polygon fill="#A80036" points="88.3481,200.68,93.5904,192.3422,89.0609,195.7311,85.6721,191.2017,88.3481,200.68" style="stroke: #A80036; stroke-width: 1.0;"/><path d="M400.046,95.044 C406.009,120.159 417.159,167.122 423.746,194.869 " fill="none" style="stroke: #A80036; stroke-width: 1.0;"/><polygon fill="#A80036" points="424.92,199.816,426.7313,190.1351,423.7642,194.9514,418.9479,191.9844,424.92,199.816" style="stroke: #A80036; stroke-width: 1.0;"/><path d="M429,236.039 C429,270.766 429,349.725 429,388.569 " fill="none" style="stroke: #A80036; stroke-width: 1.0;"/><polygon fill="#A80036" points="429,393.999,433,384.999,429,388.999,425,384.999,429,393.999" style="stroke: #A80036; stroke-width: 1.0;"/><path d="M429,430.244 C429,454.365 429,498.199 429,524.753 " fill="none" style="stroke: #A80036; stroke-width: 1.0;"/><polygon fill="#A80036" points="429,529.822,433,520.822,429,524.822,425,520.822,429,529.822" style="stroke: #A80036; stroke-width: 1.0;"/></g></svg>