<?xml version="1.0" encoding="UTF-8" standalone="yes"?><svg xmlns="http://www.w3.org/2000/svg" xmlns:xlink="http://www.w3.org/1999/xlink" height="899px" style="width:1956px;height:899px;" version="1.1" viewBox="0 0 1956 899" width="1956px"><defs><filter height="300%" id="f1" width="300%" x="-1" y="-1"><feGaussianBlur result="blurOut" stdDeviation="2.0"/><feColorMatrix in="blurOut" result="blurOut2" type="matrix" values="0 0 0 0 0 0 0 0 0 0 0 0 0 0 0 0 0 0 .4 0"/><feOffset dx="4.0" dy="4.0" in="blurOut2" result="blurOut3"/><feBlend in="SourceGraphic" in2="blurOut3" mode="normal"/></filter></defs><g><rect fill="#F0BB1D" filter="url(#f1)" height="884.5938" rx="12.5" ry="12.5" style="stroke: #A80036; stroke-width: 1.5;" width="1943" x="6" y="8"/><rect fill="#FFFFFF" height="836" rx="12.5" ry="12.5" style="stroke: #FFFFFF; stroke-width: 1.0;" width="1937" x="9" y="53.5938"/><line style="stroke: #A80036; stroke-width: 1.5;" x1="6" x2="1949" y1="50.5938" y2="50.5938"/><text fill="#000000" font-family="sans-serif" font-size="28" lengthAdjust="spacingAndGlyphs" textLength="282" x="836.5" y="38.9902">Tools for API testing</text><rect fill="#F0BB1D" filter="url(#f1)" height="85.1875" rx="12.5" ry="12.5" style="stroke: #A80036; stroke-width: 1.5;" width="177" x="490.5" y="249.0938"/><line style="stroke: #A80036; stroke-width: 1.5;" x1="490.5" x2="667.5" y1="282.375" y2="282.375"/><text fill="#000000" font-family="sans-serif" font-size="20" font-weight="bold" lengthAdjust="spacingAndGlyphs" textLength="73" x="542.5" y="272.6582">Apiary</text><text fill="#000000" font-family="sans-serif" font-size="12" lengthAdjust="spacingAndGlyphs" textLength="140" x="495.5" y="298.5137">Suite de herramientas</text><text fill="#000000" font-family="sans-serif" font-size="12" lengthAdjust="spacingAndGlyphs" textLength="157" x="495.5" y="312.4824">online para crear, validar</text><text fill="#000000" font-family="sans-serif" font-size="12" lengthAdjust="spacingAndGlyphs" textLength="99" x="495.5" y="326.4512">y testear un API</text><rect fill="#FEFECE" filter="url(#f1)" height="106.1406" rx="12.5" ry="12.5" style="stroke: #A80036; stroke-width: 1.5;" width="181" x="943.5" y="441.5938"/><line style="stroke: #A80036; stroke-width: 1.5;" x1="943.5" x2="1124.5" y1="467.8906" y2="467.8906"/><text fill="#000000" font-family="sans-serif" font-size="14" lengthAdjust="spacingAndGlyphs" textLength="122" x="973" y="459.5889">RequestsListener</text><text fill="#000000" font-family="sans-serif" font-size="12" lengthAdjust="spacingAndGlyphs" textLength="141" x="948.5" y="484.0293">Records http requests</text><text fill="#000000" font-family="sans-serif" font-size="12" lengthAdjust="spacingAndGlyphs" textLength="94" x="948.5" y="497.998">and responses</text><text fill="#000000" font-family="sans-serif" font-size="12" lengthAdjust="spacingAndGlyphs" textLength="139" x="948.5" y="511.9668">Which is deployed in a</text><text fill="#000000" font-family="sans-serif" font-size="12" lengthAdjust="spacingAndGlyphs" textLength="161" x="948.5" y="525.9355">dinamicaly created server</text><text fill="#000000" font-family="sans-serif" font-size="12" lengthAdjust="spacingAndGlyphs" textLength="104" x="948.5" y="539.9043">hosted by apiary</text><rect fill="#FEFECE" filter="url(#f1)" height="50" rx="12.5" ry="12.5" style="stroke: #A80036; stroke-width: 1.5;" width="104" x="104" y="469.5938"/><line style="stroke: #A80036; stroke-width: 1.5;" x1="104" x2="208" y1="495.8906" y2="495.8906"/><text fill="#000000" font-family="sans-serif" font-size="14" lengthAdjust="spacingAndGlyphs" textLength="84" x="114" y="487.5889">OnlineEditor</text><rect fill="#FEFECE" filter="url(#f1)" height="120.1094" rx="12.5" ry="12.5" style="stroke: #A80036; stroke-width: 1.5;" width="163" x="304.5" y="434.5938"/><line style="stroke: #A80036; stroke-width: 1.5;" x1="304.5" x2="467.5" y1="460.8906" y2="460.8906"/><text fill="#000000" font-family="sans-serif" font-size="14" font-weight="bold" lengthAdjust="spacingAndGlyphs" textLength="48" x="362" y="452.5889">Dredd</text><text fill="#000000" font-family="sans-serif" font-size="12" lengthAdjust="spacingAndGlyphs" textLength="143" x="309.5" y="477.0293">Is a language agnostic</text><text fill="#000000" font-family="sans-serif" font-size="12" lengthAdjust="spacingAndGlyphs" textLength="136" x="309.5" y="490.998">command-line tool for</text><text fill="#000000" font-family="sans-serif" font-size="12" lengthAdjust="spacingAndGlyphs" textLength="83" x="309.5" y="504.9668">validating API</text><text fill="#000000" font-family="sans-serif" font-size="12" lengthAdjust="spacingAndGlyphs" textLength="95" x="309.5" y="518.9355">documentation</text><text fill="#000000" font-family="sans-serif" font-size="12" lengthAdjust="spacingAndGlyphs" textLength="54" x="309.5" y="532.9043">HTTP API</text><text fill="#000000" font-family="sans-serif" font-size="12" lengthAdjust="spacingAndGlyphs" textLength="118" x="309.5" y="546.873">Testing Framework</text><rect fill="#FEFECE" filter="url(#f1)" height="50.2656" rx="12.5" ry="12.5" style="stroke: #A80036; stroke-width: 1.5;" width="187" x="485.5" y="469.5938"/><line style="stroke: #A80036; stroke-width: 1.5;" x1="485.5" x2="672.5" y1="495.8906" y2="495.8906"/><text fill="#000000" font-family="sans-serif" font-size="14" font-weight="bold" lengthAdjust="spacingAndGlyphs" textLength="130" x="514" y="487.5889">Precio de Apiary</text><text fill="#000000" font-family="sans-serif" font-size="12" font-weight="bold" lengthAdjust="spacingAndGlyphs" textLength="32" x="490.5" y="512.0293">$175</text><text fill="#000000" font-family="sans-serif" font-size="12" lengthAdjust="spacingAndGlyphs" textLength="0" x="526.5" y="512.0293"/><text fill="#000000" font-family="sans-serif" font-size="12" font-weight="bold" lengthAdjust="spacingAndGlyphs" textLength="54" x="526.5" y="512.0293">dólares</text><text fill="#000000" font-family="sans-serif" font-size="12" font-weight="bold" lengthAdjust="spacingAndGlyphs" textLength="77" x="580.5" y="512.0293">mensuales</text><rect fill="#FEFECE" filter="url(#f1)" height="50" rx="12.5" ry="12.5" style="stroke: #A80036; stroke-width: 1.5;" width="68" x="851" y="266.5938"/><line style="stroke: #A80036; stroke-width: 1.5;" x1="851" x2="919" y1="292.8906" y2="292.8906"/><text fill="#000000" font-family="sans-serif" font-size="14" lengthAdjust="spacingAndGlyphs" textLength="48" x="861" y="284.5889">Fake.js</text><rect fill="#FB7374" filter="url(#f1)" height="120.1094" rx="12.5" ry="12.5" style="stroke: #A80036; stroke-width: 1.5;" width="235" x="690.5" y="434.5938"/><line style="stroke: #A80036; stroke-width: 1.5;" x1="690.5" x2="925.5" y1="460.8906" y2="460.8906"/><text fill="#000000" font-family="sans-serif" font-size="14" lengthAdjust="spacingAndGlyphs" textLength="123" x="746.5" y="452.5889">Riesgos de Apiary</text><text fill="#000000" font-family="sans-serif" font-size="12" lengthAdjust="spacingAndGlyphs" textLength="196" x="695.5" y="477.0293">Costo $$ y facilidad de generar</text><text fill="#000000" font-family="sans-serif" font-size="12" lengthAdjust="spacingAndGlyphs" textLength="191" x="695.5" y="490.998">responses: aparentemente es</text><text fill="#000000" font-family="sans-serif" font-size="12" lengthAdjust="spacingAndGlyphs" textLength="177" x="695.5" y="504.9668">mucho más sencillo generar</text><text fill="#000000" font-family="sans-serif" font-size="12" lengthAdjust="spacingAndGlyphs" textLength="215" x="695.5" y="518.9355">"mock responses" en LocalAPI con</text><text fill="#000000" font-family="sans-serif" font-size="12" lengthAdjust="spacingAndGlyphs" textLength="170" x="695.5" y="532.9043">la integración que tiene en</text><text fill="#000000" font-family="sans-serif" font-size="12" lengthAdjust="spacingAndGlyphs" textLength="171" x="695.5" y="546.873">su ciclo de vida con Fake.js</text><rect fill="#FEFECE" filter="url(#f1)" height="92.1719" rx="12.5" ry="12.5" style="stroke: #A80036; stroke-width: 1.5;" width="159" x="528.5" y="652.5938"/><line style="stroke: #A80036; stroke-width: 1.5;" x1="528.5" x2="687.5" y1="678.8906" y2="678.8906"/><text fill="#000000" font-family="sans-serif" font-size="14" lengthAdjust="spacingAndGlyphs" textLength="98" x="559" y="670.5889">Modo Gratuito</text><text fill="#000000" font-family="sans-serif" font-size="12" lengthAdjust="spacingAndGlyphs" textLength="139" x="533.5" y="695.0293">La desventaja de esta</text><text fill="#000000" font-family="sans-serif" font-size="12" lengthAdjust="spacingAndGlyphs" textLength="112" x="533.5" y="708.998">modalidad es que</text><text fill="#000000" font-family="sans-serif" font-size="12" lengthAdjust="spacingAndGlyphs" textLength="135" x="533.5" y="722.9668">no puedes tener APIs</text><text fill="#000000" font-family="sans-serif" font-size="12" lengthAdjust="spacingAndGlyphs" textLength="53" x="533.5" y="736.9355">privadas</text><rect fill="#FEFECE" filter="url(#f1)" height="78.2031" rx="12.5" ry="12.5" style="stroke: #A80036; stroke-width: 1.5;" width="116" x="25" y="659.5938"/><line style="stroke: #A80036; stroke-width: 1.5;" x1="25" x2="141" y1="685.8906" y2="685.8906"/><text fill="#000000" font-family="sans-serif" font-size="14" font-weight="bold" lengthAdjust="spacingAndGlyphs" textLength="96" x="35" y="677.5889">APIBluePrint</text><text fill="#000000" font-family="sans-serif" font-size="12" lengthAdjust="spacingAndGlyphs" textLength="76" x="30" y="702.0293">Is a Web API</text><text fill="#000000" font-family="sans-serif" font-size="12" lengthAdjust="spacingAndGlyphs" textLength="95" x="30" y="715.998">documentation</text><text fill="#000000" font-family="sans-serif" font-size="12" lengthAdjust="spacingAndGlyphs" textLength="59" x="30" y="729.9668">language</text><rect fill="#FEFECE" filter="url(#f1)" height="50" rx="12.5" ry="12.5" style="stroke: #A80036; stroke-width: 1.5;" width="132" x="17" y="827.5938"/><line style="stroke: #A80036; stroke-width: 1.5;" x1="17" x2="149" y1="853.8906" y2="853.8906"/><text fill="#000000" font-family="sans-serif" font-size="14" lengthAdjust="spacingAndGlyphs" textLength="112" x="27" y="845.5889">MarkdownSintax</text><rect fill="#FEFECE" filter="url(#f1)" height="78.2031" rx="12.5" ry="12.5" style="stroke: #A80036; stroke-width: 1.5;" width="172" x="159" y="659.5938"/><line style="stroke: #A80036; stroke-width: 1.5;" x1="159" x2="331" y1="685.8906" y2="685.8906"/><text fill="#000000" font-family="sans-serif" font-size="14" lengthAdjust="spacingAndGlyphs" textLength="145" x="172.5" y="677.5889">ContinuosIntegration</text><text fill="#000000" font-family="sans-serif" font-size="12" lengthAdjust="spacingAndGlyphs" textLength="147" x="164" y="702.0293">Jenkings and Travis can</text><text fill="#000000" font-family="sans-serif" font-size="12" lengthAdjust="spacingAndGlyphs" textLength="152" x="164" y="715.998">have API documentation</text><text fill="#000000" font-family="sans-serif" font-size="12" lengthAdjust="spacingAndGlyphs" textLength="148" x="164" y="729.9668">up-to-date, all the time.</text><rect fill="#FEFECE" filter="url(#f1)" height="64.2344" rx="12.5" ry="12.5" style="stroke: #A80036; stroke-width: 1.5;" width="161" x="349.5" y="666.5938"/><line style="stroke: #A80036; stroke-width: 1.5;" x1="349.5" x2="510.5" y1="692.8906" y2="692.8906"/><text fill="#000000" font-family="sans-serif" font-size="14" lengthAdjust="spacingAndGlyphs" textLength="38" x="411" y="684.5889">Gavel</text><text fill="#000000" font-family="sans-serif" font-size="12" lengthAdjust="spacingAndGlyphs" textLength="141" x="354.5" y="709.0293">Please refer to Gavel's</text><text fill="#000000" font-family="sans-serif" font-size="12" lengthAdjust="spacingAndGlyphs" textLength="141" x="354.5" y="722.998">behavior specification.</text><rect fill="#F0BB1D" filter="url(#f1)" height="85.1875" rx="12.5" ry="12.5" style="stroke: #A80036; stroke-width: 1.5;" width="188" x="1302" y="63.5938"/><line style="stroke: #A80036; stroke-width: 1.5;" x1="1302" x2="1490" y1="96.875" y2="96.875"/><text fill="#000000" font-family="sans-serif" font-size="20" font-weight="bold" lengthAdjust="spacingAndGlyphs" textLength="97" x="1347.5" y="87.1582">LocalAPI</text><text fill="#000000" font-family="sans-serif" font-size="12" lengthAdjust="spacingAndGlyphs" textLength="168" x="1307" y="113.0137">LocalAPI generates dummy</text><text fill="#000000" font-family="sans-serif" font-size="12" lengthAdjust="spacingAndGlyphs" textLength="134" x="1307" y="126.9824">data and runs a local</text><text fill="#000000" font-family="sans-serif" font-size="12" lengthAdjust="spacingAndGlyphs" textLength="122" x="1307" y="140.9512">API based on RAML.</text><rect fill="#FEFECE" filter="url(#f1)" height="78.2031" rx="12.5" ry="12.5" style="stroke: #A80036; stroke-width: 1.5;" width="99" x="1654.5" y="252.5938"/><line style="stroke: #A80036; stroke-width: 1.5;" x1="1654.5" x2="1753.5" y1="278.8906" y2="278.8906"/><text fill="#000000" font-family="sans-serif" font-size="14" font-weight="bold" lengthAdjust="spacingAndGlyphs" textLength="43" x="1682.5" y="270.5889">RAML</text><text fill="#000000" font-family="sans-serif" font-size="12" lengthAdjust="spacingAndGlyphs" textLength="79" x="1659.5" y="295.0293">Language to</text><text fill="#000000" font-family="sans-serif" font-size="12" lengthAdjust="spacingAndGlyphs" textLength="73" x="1659.5" y="308.998">model REST</text><text fill="#000000" font-family="sans-serif" font-size="12" lengthAdjust="spacingAndGlyphs" textLength="26" x="1659.5" y="322.9668">APIs</text><rect fill="#FEFECE" filter="url(#f1)" height="106.1406" rx="12.5" ry="12.5" style="stroke: #A80036; stroke-width: 1.5;" width="144" x="1772" y="238.5938"/><line style="stroke: #A80036; stroke-width: 1.5;" x1="1772" x2="1916" y1="264.8906" y2="264.8906"/><text fill="#000000" font-family="sans-serif" font-size="14" lengthAdjust="spacingAndGlyphs" textLength="107" x="1790.5" y="256.5889">YourOwnServer</text><text fill="#000000" font-family="sans-serif" font-size="12" lengthAdjust="spacingAndGlyphs" textLength="106" x="1777" y="281.0293">You have to host</text><text fill="#000000" font-family="sans-serif" font-size="12" lengthAdjust="spacingAndGlyphs" textLength="118" x="1777" y="294.998">it in some machine</text><text fill="#000000" font-family="sans-serif" font-size="12" lengthAdjust="spacingAndGlyphs" textLength="124" x="1777" y="308.9668">of yours by creating</text><text fill="#000000" font-family="sans-serif" font-size="12" lengthAdjust="spacingAndGlyphs" textLength="90" x="1777" y="322.9355">an instance of</text><text fill="#000000" font-family="sans-serif" font-size="12" lengthAdjust="spacingAndGlyphs" textLength="51" x="1777" y="336.9043">LocalAPI</text><rect fill="#FEFECE" filter="url(#f1)" height="106.1406" rx="12.5" ry="12.5" style="stroke: #A80036; stroke-width: 1.5;" width="186" x="937" y="238.5938"/><line style="stroke: #A80036; stroke-width: 1.5;" x1="937" x2="1123" y1="264.8906" y2="264.8906"/><text fill="#000000" font-family="sans-serif" font-size="14" lengthAdjust="spacingAndGlyphs" textLength="35" x="1012.5" y="256.5889">Abao</text><text fill="#000000" font-family="sans-serif" font-size="12" lengthAdjust="spacingAndGlyphs" textLength="137" x="942" y="281.0293">Command-line tool for</text><text fill="#000000" font-family="sans-serif" font-size="12" lengthAdjust="spacingAndGlyphs" textLength="166" x="942" y="294.998">testing API documentation</text><text fill="#000000" font-family="sans-serif" font-size="12" lengthAdjust="spacingAndGlyphs" textLength="139" x="942" y="308.9668">written in RAML format</text><text fill="#000000" font-family="sans-serif" font-size="12" lengthAdjust="spacingAndGlyphs" textLength="124" x="942" y="322.9355">against its backend</text><text fill="#000000" font-family="sans-serif" font-size="12" lengthAdjust="spacingAndGlyphs" textLength="97" x="942" y="336.9043">implementation</text><rect fill="#FEFECE" filter="url(#f1)" height="50.2656" rx="12.5" ry="12.5" style="stroke: #A80036; stroke-width: 1.5;" width="252" x="1141" y="266.5938"/><line style="stroke: #A80036; stroke-width: 1.5;" x1="1141" x2="1393" y1="292.8906" y2="292.8906"/><text fill="#000000" font-family="sans-serif" font-size="14" font-weight="bold" lengthAdjust="spacingAndGlyphs" textLength="146" x="1194" y="284.5889">Precio de LocalAPI</text><text fill="#000000" font-family="sans-serif" font-size="12" font-weight="bold" lengthAdjust="spacingAndGlyphs" textLength="232" x="1146" y="309.0293">Libre, gratis, sin letras chiquitas</text><rect fill="#FB7374" filter="url(#f1)" height="120.1094" rx="12.5" ry="12.5" style="stroke: #A80036; stroke-width: 1.5;" width="225" x="1411.5" y="231.5938"/><line style="stroke: #A80036; stroke-width: 1.5;" x1="1411.5" x2="1636.5" y1="257.8906" y2="257.8906"/><text fill="#000000" font-family="sans-serif" font-size="14" lengthAdjust="spacingAndGlyphs" textLength="138" x="1455" y="249.5889">Riesgos de LocalAPI</text><text fill="#000000" font-family="sans-serif" font-size="12" lengthAdjust="spacingAndGlyphs" textLength="171" x="1416.5" y="274.0293">Sus herramientas no están</text><text fill="#000000" font-family="sans-serif" font-size="12" lengthAdjust="spacingAndGlyphs" textLength="195" x="1416.5" y="287.998">integradas (como las de Apiary</text><text fill="#000000" font-family="sans-serif" font-size="12" lengthAdjust="spacingAndGlyphs" textLength="201" x="1416.5" y="301.9668">[excepto Dredd]) y el trabajo de</text><text fill="#000000" font-family="sans-serif" font-size="12" lengthAdjust="spacingAndGlyphs" textLength="205" x="1416.5" y="315.9355">integrarlas mientras estamos en</text><text fill="#000000" font-family="sans-serif" font-size="12" lengthAdjust="spacingAndGlyphs" textLength="192" x="1416.5" y="329.9043">desarrollo puede ser un factor</text><text fill="#000000" font-family="sans-serif" font-size="12" lengthAdjust="spacingAndGlyphs" textLength="73" x="1416.5" y="343.873">importante.</text><rect fill="#FEFECE" filter="url(#f1)" height="78.2031" rx="12.5" ry="12.5" style="stroke: #A80036; stroke-width: 1.5;" width="244" x="763" y="67.0938"/><line style="stroke: #A80036; stroke-width: 1.5;" x1="763" x2="1007" y1="93.3906" y2="93.3906"/><text fill="#000000" font-family="sans-serif" font-size="14" lengthAdjust="spacingAndGlyphs" textLength="73" x="848.5" y="85.0889">Templates</text><text fill="#000000" font-family="sans-serif" font-size="12" lengthAdjust="spacingAndGlyphs" textLength="154" x="768" y="109.5293">Son scripts de Javascript</text><text fill="#000000" font-family="sans-serif" font-size="12" lengthAdjust="spacingAndGlyphs" textLength="181" x="768" y="123.498">usando el API de Fake.js que</text><text fill="#000000" font-family="sans-serif" font-size="12" lengthAdjust="spacingAndGlyphs" textLength="224" x="768" y="137.4668">describe responses (modelos JSON)</text><rect fill="#FEFECE" filter="url(#f1)" height="50" rx="12.5" ry="12.5" style="stroke: #A80036; stroke-width: 1.5;" width="109" x="363.5" y="266.5938"/><line style="stroke: #A80036; stroke-width: 1.5;" x1="363.5" x2="472.5" y1="292.8906" y2="292.8906"/><text fill="#000000" font-family="sans-serif" font-size="14" lengthAdjust="spacingAndGlyphs" textLength="89" x="373.5" y="284.5889">Programador</text><rect fill="#FEFECE" filter="url(#f1)" height="50" rx="12.5" ry="12.5" style="stroke: #A80036; stroke-width: 1.5;" width="57" x="1675.5" y="469.5938"/><line style="stroke: #A80036; stroke-width: 1.5;" x1="1675.5" x2="1732.5" y1="495.8906" y2="495.8906"/><text fill="#000000" font-family="sans-serif" font-size="14" lengthAdjust="spacingAndGlyphs" textLength="37" x="1685.5" y="487.5889">YAML</text><path d="M667.791,323.8188 C740.601,350.4367 845.681,391.1908 934,434.5938 C936.909,436.0228 939.846,437.5058 942.798,439.0288 " fill="none" style="stroke: #A80036; stroke-width: 1.0;"/><polygon fill="#A80036" points="947.446,441.4548,941.3171,433.7452,943.0131,439.1419,937.6165,440.8379,947.446,441.4548" style="stroke: #A80036; stroke-width: 1.0;"/><text fill="#000000" font-family="sans-serif" font-size="13" lengthAdjust="spacingAndGlyphs" textLength="77" x="888" y="390.1606">validates an</text><text fill="#000000" font-family="sans-serif" font-size="13" lengthAdjust="spacingAndGlyphs" textLength="74" x="889.5" y="405.2935">API through</text><path d="M517.419,334.1278 C505.691,340.7347 493.246,346.9198 481,351.5938 C440.851,366.9168 426.501,355.2278 386,369.5938 C315.796,394.4948 241.026,438.4678 196.431,466.8018 " fill="none" style="stroke: #A80036; stroke-width: 1.0;"/><polygon fill="#A80036" points="192.211,469.4938,201.9498,468.0254,196.4262,466.8046,197.6471,461.281,192.211,469.4938" style="stroke: #A80036; stroke-width: 1.0;"/><text fill="#000000" font-family="sans-serif" font-size="13" lengthAdjust="spacingAndGlyphs" textLength="55" x="396.5" y="382.6606">edits API</text><text fill="#000000" font-family="sans-serif" font-size="13" lengthAdjust="spacingAndGlyphs" textLength="70" x="387" y="397.7935">description</text><text fill="#000000" font-family="sans-serif" font-size="13" lengthAdjust="spacingAndGlyphs" textLength="50" x="399" y="412.9263">through</text><path d="M539.01,334.2408 C512.273,362.0868 476.6,399.2378 446.425,430.6648 " fill="none" style="stroke: #A80036; stroke-width: 1.0;"/><polygon fill="#A80036" points="442.773,434.4678,451.8921,430.7472,446.2364,430.8615,446.1221,425.2058,442.773,434.4678" style="stroke: #A80036; stroke-width: 1.0;"/><text fill="#000000" font-family="sans-serif" font-size="13" lengthAdjust="spacingAndGlyphs" textLength="65" x="501" y="390.1606">for testing</text><text fill="#000000" font-family="sans-serif" font-size="13" lengthAdjust="spacingAndGlyphs" textLength="54" x="506.5" y="405.2935">API uses</text><path d="M579,334.2408 C579,372.9888 579,429.7588 579,464.0438 " fill="none" style="stroke: #A80036; stroke-width: 1.0;"/><polygon fill="#A80036" points="579,469.3468,583,460.3468,579,464.3468,575,460.3468,579,469.3468" style="stroke: #A80036; stroke-width: 1.0;"/><text fill="#000000" font-family="sans-serif" font-size="13" lengthAdjust="spacingAndGlyphs" textLength="43" x="580" y="397.6606">cuesta</text><path d="M667.508,291.5938 C726.484,291.5938 801.109,291.5938 845.842,291.5938 " fill="none" style="stroke: #A80036; stroke-width: 1.0;"/><polygon fill="#A80036" points="850.879,291.5938,841.879,287.5938,845.879,291.5938,841.879,295.5938,850.879,291.5938" style="stroke: #A80036; stroke-width: 1.0;"/><text fill="#000000" font-family="sans-serif" font-size="13" lengthAdjust="spacingAndGlyphs" textLength="124" x="697.25" y="239.6606">para generacion de</text><text fill="#000000" font-family="sans-serif" font-size="13" lengthAdjust="spacingAndGlyphs" textLength="151" x="683.75" y="254.7935">informacion puede usar</text><text fill="#000000" font-family="sans-serif" font-size="13" lengthAdjust="spacingAndGlyphs" textLength="164" x="677.25" y="269.9263">(aunque el procedimiento</text><text fill="#000000" font-family="sans-serif" font-size="13" lengthAdjust="spacingAndGlyphs" textLength="88" x="715.25" y="285.0591">sería manual)</text><path d="M626.449,334.2408 C658.302,362.1998 700.845,399.5408 736.741,431.0478 " fill="none" style="stroke: #A80036; stroke-width: 1.0;"/><polygon fill="#A80036" points="740.637,434.4678,736.511,425.5248,736.879,431.1697,731.2341,431.5376,740.637,434.4678" style="stroke: #A80036; stroke-width: 1.0;"/><text fill="#000000" font-family="sans-serif" font-size="13" lengthAdjust="spacingAndGlyphs" textLength="39" x="716" y="397.6606">riesgo</text><path d="M582.498,519.9598 C586.996,551.2918 594.921,606.4948 600.746,647.0688 " fill="none" style="stroke: #A80036; stroke-width: 1.0;"/><polygon fill="#A80036" points="601.518,652.4418,604.1993,642.9649,600.8079,647.4924,596.2804,644.1011,601.518,652.4418" style="stroke: #A80036; stroke-width: 1.0;"/><text fill="#000000" font-family="sans-serif" font-size="13" lengthAdjust="spacingAndGlyphs" textLength="52" x="600" y="608.1606">tiene un</text><path d="M83,737.9498 C83,764.1138 83,798.2415 83,822.2445 " fill="none" style="stroke: #A80036; stroke-width: 1.0;"/><polygon fill="#A80036" points="83,827.5089,87,818.5089,83,822.5089,79,818.5089,83,827.5089" style="stroke: #A80036; stroke-width: 1.0;"/><text fill="#000000" font-family="sans-serif" font-size="13" lengthAdjust="spacingAndGlyphs" textLength="61" x="84" y="775.6606">describes</text><text fill="#000000" font-family="sans-serif" font-size="13" lengthAdjust="spacingAndGlyphs" textLength="58" x="85.5" y="790.7935">Web APIs</text><text fill="#000000" font-family="sans-serif" font-size="13" lengthAdjust="spacingAndGlyphs" textLength="25" x="102" y="805.9263">with</text><path d="M147.194,519.9598 C135.169,553.2348 113.4148,613.4327 98.5957,654.4388 " fill="none" style="stroke: #A80036; stroke-width: 1.0;"/><polygon fill="#A80036" points="96.8239,659.3408,103.6455,652.2368,98.5238,654.6386,96.122,649.5169,96.8239,659.3408" style="stroke: #A80036; stroke-width: 1.0;"/><text fill="#000000" font-family="sans-serif" font-size="13" lengthAdjust="spacingAndGlyphs" textLength="30" x="147.5" y="600.6606">uses</text><text fill="#000000" font-family="sans-serif" font-size="13" lengthAdjust="spacingAndGlyphs" textLength="69" x="128" y="615.7935">(language)</text><path d="M344.648,554.8358 C322.187,587.0138 294.936,626.0548 274.612,655.1708 " fill="none" style="stroke: #A80036; stroke-width: 1.0;"/><polygon fill="#A80036" points="271.665,659.3928,280.0959,654.3017,274.5266,655.2926,273.5357,649.7232,271.665,659.3928" style="stroke: #A80036; stroke-width: 1.0;"/><text fill="#000000" font-family="sans-serif" font-size="13" lengthAdjust="spacingAndGlyphs" textLength="43" x="338.5" y="600.6606">can be</text><text fill="#000000" font-family="sans-serif" font-size="13" lengthAdjust="spacingAndGlyphs" textLength="60" x="330" y="615.7935">used with</text><path d="M398.904,554.8358 C406.431,589.3908 415.682,631.8608 422.128,661.4548 " fill="none" style="stroke: #A80036; stroke-width: 1.0;"/><polygon fill="#A80036" points="423.218,666.4578,425.2107,656.8126,422.1538,661.5723,417.3941,658.5154,423.218,666.4578" style="stroke: #A80036; stroke-width: 1.0;"/><text fill="#000000" font-family="sans-serif" font-size="13" lengthAdjust="spacingAndGlyphs" textLength="93" x="423.5" y="585.6606">For judging if a</text><text fill="#000000" font-family="sans-serif" font-size="13" lengthAdjust="spacingAndGlyphs" textLength="84" x="428" y="600.7935">particular API</text><text fill="#000000" font-family="sans-serif" font-size="13" lengthAdjust="spacingAndGlyphs" textLength="106" x="417" y="615.9263">response is valid</text><text fill="#000000" font-family="sans-serif" font-size="13" lengthAdjust="spacingAndGlyphs" textLength="75" x="432.5" y="631.0591">or if it is not</text><path d="M1490.23,145.5127 C1538.61,167.3478 1597.26,197.1867 1645,231.5938 C1652.14,236.7397 1659.21,242.7648 1665.85,248.9638 " fill="none" style="stroke: #A80036; stroke-width: 1.0;"/><polygon fill="#A80036" points="1669.49,252.4208,1665.7179,243.3229,1665.8642,248.9778,1660.2093,249.1241,1669.49,252.4208" style="stroke: #A80036; stroke-width: 1.0;"/><text fill="#000000" font-family="sans-serif" font-size="13" lengthAdjust="spacingAndGlyphs" textLength="61" x="1615" y="179.6606">describes</text><text fill="#000000" font-family="sans-serif" font-size="13" lengthAdjust="spacingAndGlyphs" textLength="58" x="1616.5" y="194.7935">Web APIs</text><text fill="#000000" font-family="sans-serif" font-size="13" lengthAdjust="spacingAndGlyphs" textLength="25" x="1633" y="209.9263">with</text><path d="M1490.08,116.0918 C1547.26,124.1128 1620.64,139.0538 1681,166.5938 C1718.46,183.6857 1755.38,210.6878 1784.59,235.1368 " fill="none" style="stroke: #A80036; stroke-width: 1.0;"/><polygon fill="#A80036" points="1788.48,238.4127,1784.185,229.5498,1784.66,235.1866,1779.0232,235.6617,1788.48,238.4127" style="stroke: #A80036; stroke-width: 1.0;"/><text fill="#000000" font-family="sans-serif" font-size="13" lengthAdjust="spacingAndGlyphs" textLength="77" x="1759" y="187.1606">validates an</text><text fill="#000000" font-family="sans-serif" font-size="13" lengthAdjust="spacingAndGlyphs" textLength="74" x="1760.5" y="202.2935">API through</text><path d="M1301.96,144.6688 C1285.51,151.6798 1268.66,159.1498 1253,166.5938 C1197.86,192.7958 1185.32,201.8628 1132,231.5938 C1129.49,232.9947 1126.94,234.4198 1124.38,235.8628 " fill="none" style="stroke: #A80036; stroke-width: 1.0;"/><polygon fill="#A80036" points="1119.74,238.4757,1129.5441,237.5376,1124.0949,236.0191,1125.6134,230.5699,1119.74,238.4757" style="stroke: #A80036; stroke-width: 1.0;"/><text fill="#000000" font-family="sans-serif" font-size="13" lengthAdjust="spacingAndGlyphs" textLength="65" x="1254" y="187.1606">for testing</text><text fill="#000000" font-family="sans-serif" font-size="13" lengthAdjust="spacingAndGlyphs" textLength="54" x="1259.5" y="202.2935">API uses</text><path d="M1366.73,148.7328 C1342.35,183.4027 1308.3,231.8447 1286.96,262.2017 " fill="none" style="stroke: #A80036; stroke-width: 1.0;"/><polygon fill="#A80036" points="1283.91,266.5458,1292.3611,261.4883,1286.7879,262.457,1285.8191,256.8837,1283.91,266.5458" style="stroke: #A80036; stroke-width: 1.0;"/><text fill="#000000" font-family="sans-serif" font-size="13" lengthAdjust="spacingAndGlyphs" textLength="43" x="1352" y="194.6606">cuesta</text><path d="M1425.05,148.7328 C1441.22,171.9188 1461.69,201.2637 1479.81,227.2397 " fill="none" style="stroke: #A80036; stroke-width: 1.0;"/><polygon fill="#A80036" points="1482.69,231.3787,1480.8216,221.7087,1479.8294,227.2779,1474.2602,226.2857,1482.69,231.3787" style="stroke: #A80036; stroke-width: 1.0;"/><text fill="#000000" font-family="sans-serif" font-size="13" lengthAdjust="spacingAndGlyphs" textLength="39" x="1469" y="194.6606">riesgo</text><path d="M1012.133,106.0938 C1101.9,106.0938 1220.23,106.0938 1301.66,106.0938 " fill="none" style="stroke: #A80036; stroke-width: 1.0;"/><polygon fill="#A80036" points="1007.072,106.0938,1016.072,110.0938,1012.072,106.0938,1016.072,102.0938,1007.072,106.0938" style="stroke: #A80036; stroke-width: 1.0;"/><text fill="#000000" font-family="sans-serif" font-size="13" lengthAdjust="spacingAndGlyphs" textLength="124" x="1092.5" y="84.1606">para generacion de</text><text fill="#000000" font-family="sans-serif" font-size="13" lengthAdjust="spacingAndGlyphs" textLength="107" x="1101" y="99.2935">informacion usar</text><path d="M762.914,129.5607 C679.558,148.4378 568.762,180.6688 481,231.5938 C466.794,239.8368 453.203,251.8378 442.306,262.8668 " fill="none" style="stroke: #A80036; stroke-width: 1.0;"/><polygon fill="#A80036" points="438.716,266.5628,447.8552,262.892,442.199,262.9755,442.1156,257.3192,438.716,266.5628" style="stroke: #A80036; stroke-width: 1.0;"/><text fill="#000000" font-family="sans-serif" font-size="13" lengthAdjust="spacingAndGlyphs" textLength="71" x="631" y="194.6606">hechos por</text><path d="M885,145.1147 C885,179.5498 885,229.5748 885,261.0798 " fill="none" style="stroke: #A80036; stroke-width: 1.0;"/><polygon fill="#A80036" points="885,266.3547,889,257.3547,885,261.3547,881,257.3547,885,266.3547" style="stroke: #A80036; stroke-width: 1.0;"/><text fill="#000000" font-family="sans-serif" font-size="13" lengthAdjust="spacingAndGlyphs" textLength="64" x="886" y="187.1606">Usando el</text><text fill="#000000" font-family="sans-serif" font-size="13" lengthAdjust="spacingAndGlyphs" textLength="40" x="898" y="202.2935">API de</text><path d="M1704,330.8738 C1704,369.7388 1704,429.0728 1704,464.3308 " fill="none" style="stroke: #A80036; stroke-width: 1.0;"/><polygon fill="#A80036" points="1704,469.3528,1708,460.3528,1704,464.3528,1700,460.3528,1704,469.3528" style="stroke: #A80036; stroke-width: 1.0;"/><text fill="#000000" font-family="sans-serif" font-size="13" lengthAdjust="spacingAndGlyphs" textLength="61" x="1705" y="382.6606">describes</text><text fill="#000000" font-family="sans-serif" font-size="13" lengthAdjust="spacingAndGlyphs" textLength="55" x="1708" y="397.7935">web apis</text><text fill="#000000" font-family="sans-serif" font-size="13" lengthAdjust="spacingAndGlyphs" textLength="25" x="1723" y="412.9263">with</text></g></svg>