<?xml version="1.0" encoding="UTF-8" standalone="yes"?><svg xmlns="http://www.w3.org/2000/svg" xmlns:xlink="http://www.w3.org/1999/xlink" height="563px" style="width:512px;height:563px;" version="1.1" viewBox="0 0 512 563" width="512px"><defs><filter height="300%" id="f1" width="300%" x="-1" y="-1"><feGaussianBlur result="blurOut" stdDeviation="2.0"/><feColorMatrix in="blurOut" result="blurOut2" type="matrix" values="0 0 0 0 0 0 0 0 0 0 0 0 0 0 0 0 0 0 .4 0"/><feOffset dx="4.0" dy="4.0" in="blurOut2" result="blurOut3"/><feBlend in="SourceGraphic" in2="blurOut3" mode="normal"/></filter></defs><g><polygon fill="#FFFFFF" filter="url(#f1)" points="22,34,32,24,507,24,507,548,497,558,22,558,22,34" style="stroke: #000000; stroke-width: 2.0;"/><line style="stroke: #000000; stroke-width: 2.0;" x1="497" x2="506" y1="34" y2="25"/><line style="stroke: #000000; stroke-width: 2.0;" x1="22" x2="497" y1="34" y2="34"/><line style="stroke: #000000; stroke-width: 2.0;" x1="497" x2="497" y1="34" y2="558"/><text fill="#000000" font-family="sans-serif" font-size="14" font-weight="bold" lengthAdjust="spacingAndGlyphs" textLength="97" x="212" y="49.9951">Api Artifacts</text><ellipse cx="205" cy="73" fill="#FEFECE" filter="url(#f1)" rx="8" ry="8" style="stroke: #A80036; stroke-width: 2.0;"/><text fill="#000000" font-family="sans-serif" font-size="14" lengthAdjust="spacingAndGlyphs" textLength="75" x="167.5" y="94.9951">Resources</text><ellipse cx="64" cy="184" fill="#FEFECE" filter="url(#f1)" rx="8" ry="8" style="stroke: #A80036; stroke-width: 2.0;"/><text fill="#000000" font-family="sans-serif" font-size="14" lengthAdjust="spacingAndGlyphs" textLength="51" x="38.5" y="205.9951">Actions</text><ellipse cx="158" cy="184" fill="#FEFECE" filter="url(#f1)" rx="8" ry="8" style="stroke: #A80036; stroke-width: 2.0;"/><text fill="#000000" font-family="sans-serif" font-size="14" lengthAdjust="spacingAndGlyphs" textLength="67" x="124.5" y="205.9951">Resource</text><ellipse cx="275" cy="184" fill="#FEFECE" filter="url(#f1)" rx="8" ry="8" style="stroke: #A80036; stroke-width: 2.0;"/><text fill="#000000" font-family="sans-serif" font-size="14" lengthAdjust="spacingAndGlyphs" textLength="97" x="226.5" y="205.9951">UriParameters</text><ellipse cx="425" cy="184" fill="#FEFECE" filter="url(#f1)" rx="8" ry="8" style="stroke: #A80036; stroke-width: 2.0;"/><text fill="#000000" font-family="sans-serif" font-size="14" lengthAdjust="spacingAndGlyphs" textLength="132" x="359" y="205.9951">BaseUriParameters</text><ellipse cx="98" cy="295" fill="#FEFECE" filter="url(#f1)" rx="8" ry="8" style="stroke: #A80036; stroke-width: 2.0;"/><text fill="#000000" font-family="sans-serif" font-size="14" lengthAdjust="spacingAndGlyphs" textLength="120" x="38" y="316.9951">QueryParameters</text><ellipse cx="233" cy="295" fill="#FEFECE" filter="url(#f1)" rx="8" ry="8" style="stroke: #A80036; stroke-width: 2.0;"/><text fill="#000000" font-family="sans-serif" font-size="14" lengthAdjust="spacingAndGlyphs" textLength="79" x="193.5" y="316.9951">Responses</text><ellipse cx="233" cy="406" fill="#FEFECE" filter="url(#f1)" rx="8" ry="8" style="stroke: #A80036; stroke-width: 2.0;"/><text fill="#000000" font-family="sans-serif" font-size="14" lengthAdjust="spacingAndGlyphs" textLength="71" x="197.5" y="427.9951">MimeType</text><ellipse cx="233" cy="517" fill="#FEFECE" filter="url(#f1)" rx="8" ry="8" style="stroke: #A80036; stroke-width: 2.0;"/><text fill="#000000" font-family="sans-serif" font-size="14" lengthAdjust="spacingAndGlyphs" textLength="114" x="176" y="538.9951">FormParameters</text><path d="M180.38,98.014 C167.524,106.597 151.667,117.535 138,128 C119.877,141.876 100.2435,158.68 85.7566,171.442 " fill="none" style="stroke: #A80036; stroke-width: 1.0;"/><polygon fill="#A80036" points="81.8125,174.928,91.2046,171.9636,85.5584,171.6162,85.9058,165.97,81.8125,174.928" style="stroke: #A80036; stroke-width: 1.0;"/><text fill="#000000" font-family="sans-serif" font-size="13" lengthAdjust="spacingAndGlyphs" textLength="31" x="139" y="141.0669">have</text><path d="M198.065,98.083 C189.838,117.162 176.101,149.02 167.046,170.021 " fill="none" style="stroke: #A80036; stroke-width: 1.0;"/><polygon fill="#A80036" points="164.963,174.851,172.1999,168.1706,166.9429,170.2597,164.8539,165.0027,164.963,174.851" style="stroke: #A80036; stroke-width: 1.0;"/><text fill="#000000" font-family="sans-serif" font-size="13" lengthAdjust="spacingAndGlyphs" textLength="31" x="186" y="141.0669">have</text><path d="M215.329,98.083 C227.685,117.323 248.387,149.559 261.867,170.551 " fill="none" style="stroke: #A80036; stroke-width: 1.0;"/><polygon fill="#A80036" points="264.629,174.851,263.1336,165.1163,261.9281,170.6433,256.4012,169.4378,264.629,174.851" style="stroke: #A80036; stroke-width: 1.0;"/><text fill="#000000" font-family="sans-serif" font-size="13" lengthAdjust="spacingAndGlyphs" textLength="31" x="246" y="141.0669">have</text><path d="M237.462,98.083 C277.594,117.967 345.743,151.732 387.903,172.62 " fill="none" style="stroke: #A80036; stroke-width: 1.0;"/><polygon fill="#A80036" points="392.405,174.851,386.1168,167.2708,387.9249,172.6309,382.5648,174.439,392.405,174.851" style="stroke: #A80036; stroke-width: 1.0;"/><text fill="#000000" font-family="sans-serif" font-size="13" lengthAdjust="spacingAndGlyphs" textLength="31" x="329" y="141.0669">have</text><path d="M69.0168,209.083 C74.968,228.162 84.9055,260.02 91.4562,281.021 " fill="none" style="stroke: #A80036; stroke-width: 1.0;"/><polygon fill="#A80036" points="92.9626,285.851,94.0991,276.0679,91.4727,281.0781,86.4625,278.4517,92.9626,285.851" style="stroke: #A80036; stroke-width: 1.0;"/><text fill="#000000" font-family="sans-serif" font-size="13" lengthAdjust="spacingAndGlyphs" textLength="31" x="85" y="252.0669">have</text><path d="M88.9365,209.083 C119.516,228.806 171.27,262.186 203.712,283.11 " fill="none" style="stroke: #A80036; stroke-width: 1.0;"/><polygon fill="#A80036" points="207.961,285.851,202.566,277.6112,203.7592,283.1408,198.2297,284.334,207.961,285.851" style="stroke: #A80036; stroke-width: 1.0;"/><text fill="#000000" font-family="sans-serif" font-size="13" lengthAdjust="spacingAndGlyphs" textLength="31" x="160" y="252.0669">have</text><path d="M233,320.083 C233,339.082 233,370.752 233,391.755 " fill="none" style="stroke: #A80036; stroke-width: 1.0;"/><polygon fill="#A80036" points="233,396.851,237,387.851,233,391.851,229,387.851,233,396.851" style="stroke: #A80036; stroke-width: 1.0;"/><text fill="#000000" font-family="sans-serif" font-size="13" lengthAdjust="spacingAndGlyphs" textLength="31" x="234" y="363.0669">have</text><path d="M233,431.083 C233,450.082 233,481.7518 233,502.7549 " fill="none" style="stroke: #A80036; stroke-width: 1.0;"/><polygon fill="#A80036" points="233,507.8507,237,498.8507,233,502.8507,229,498.8507,233,507.8507" style="stroke: #A80036; stroke-width: 1.0;"/><text fill="#000000" font-family="sans-serif" font-size="13" lengthAdjust="spacingAndGlyphs" textLength="31" x="234" y="474.0669">have</text></g></svg>