<?xml version="1.0" encoding="UTF-8" standalone="yes"?><svg xmlns="http://www.w3.org/2000/svg" xmlns:xlink="http://www.w3.org/1999/xlink" height="455px" style="width:1093px;height:455px;" version="1.1" viewBox="0 0 1093 455" width="1093px"><defs><filter height="300%" id="f1" width="300%" x="-1" y="-1"><feGaussianBlur result="blurOut" stdDeviation="2.0"/><feColorMatrix in="blurOut" result="blurOut2" type="matrix" values="0 0 0 0 0 0 0 0 0 0 0 0 0 0 0 0 0 0 .4 0"/><feOffset dx="4.0" dy="4.0" in="blurOut2" result="blurOut3"/><feBlend in="SourceGraphic" in2="blurOut3" mode="normal"/></filter></defs><g><line style="stroke: #A80036; stroke-width: 1.0; stroke-dasharray: 5.0,5.0;" x1="71" x2="71" y1="38.2969" y2="417.625"/><line style="stroke: #A80036; stroke-width: 1.0; stroke-dasharray: 5.0,5.0;" x1="363" x2="363" y1="38.2969" y2="417.625"/><line style="stroke: #A80036; stroke-width: 1.0; stroke-dasharray: 5.0,5.0;" x1="481" x2="481" y1="38.2969" y2="417.625"/><line style="stroke: #A80036; stroke-width: 1.0; stroke-dasharray: 5.0,5.0;" x1="692" x2="692" y1="38.2969" y2="417.625"/><line style="stroke: #A80036; stroke-width: 1.0; stroke-dasharray: 5.0,5.0;" x1="939.5" x2="939.5" y1="38.2969" y2="417.625"/><rect fill="#FEFECE" filter="url(#f1)" height="30.2969" style="stroke: #A80036; stroke-width: 1.5;" width="123" x="8" y="3"/><text fill="#000000" font-family="sans-serif" font-size="14" lengthAdjust="spacingAndGlyphs" textLength="109" x="15" y="22.9951">ResourcePicker</text><rect fill="#FEFECE" filter="url(#f1)" height="30.2969" style="stroke: #A80036; stroke-width: 1.5;" width="123" x="8" y="416.625"/><text fill="#000000" font-family="sans-serif" font-size="14" lengthAdjust="spacingAndGlyphs" textLength="109" x="15" y="436.6201">ResourcePicker</text><rect fill="#FEFECE" filter="url(#f1)" height="30.2969" style="stroke: #A80036; stroke-width: 1.5;" width="109" x="307" y="3"/><text fill="#000000" font-family="sans-serif" font-size="14" lengthAdjust="spacingAndGlyphs" textLength="95" x="314" y="22.9951">RAMLDiagram</text><rect fill="#FEFECE" filter="url(#f1)" height="30.2969" style="stroke: #A80036; stroke-width: 1.5;" width="109" x="307" y="416.625"/><text fill="#000000" font-family="sans-serif" font-size="14" lengthAdjust="spacingAndGlyphs" textLength="95" x="314" y="436.6201">RAMLDiagram</text><rect fill="#FEFECE" filter="url(#f1)" height="30.2969" style="stroke: #A80036; stroke-width: 1.5;" width="99" x="430" y="3"/><text fill="#000000" font-family="sans-serif" font-size="14" lengthAdjust="spacingAndGlyphs" textLength="85" x="437" y="22.9951">H2Database</text><rect fill="#FEFECE" filter="url(#f1)" height="30.2969" style="stroke: #A80036; stroke-width: 1.5;" width="99" x="430" y="416.625"/><text fill="#000000" font-family="sans-serif" font-size="14" lengthAdjust="spacingAndGlyphs" textLength="85" x="437" y="436.6201">H2Database</text><rect fill="#FEFECE" filter="url(#f1)" height="30.2969" style="stroke: #A80036; stroke-width: 1.5;" width="155" x="613" y="3"/><text fill="#000000" font-family="sans-serif" font-size="14" lengthAdjust="spacingAndGlyphs" textLength="141" x="620" y="22.9951">CommandGenerator</text><rect fill="#FEFECE" filter="url(#f1)" height="30.2969" style="stroke: #A80036; stroke-width: 1.5;" width="155" x="613" y="416.625"/><text fill="#000000" font-family="sans-serif" font-size="14" lengthAdjust="spacingAndGlyphs" textLength="141" x="620" y="436.6201">CommandGenerator</text><rect fill="#FEFECE" filter="url(#f1)" height="30.2969" style="stroke: #A80036; stroke-width: 1.5;" width="146" x="864.5" y="3"/><text fill="#000000" font-family="sans-serif" font-size="14" lengthAdjust="spacingAndGlyphs" textLength="132" x="871.5" y="22.9951">CommandExecuter</text><rect fill="#FEFECE" filter="url(#f1)" height="30.2969" style="stroke: #A80036; stroke-width: 1.5;" width="146" x="864.5" y="416.625"/><text fill="#000000" font-family="sans-serif" font-size="14" lengthAdjust="spacingAndGlyphs" textLength="132" x="871.5" y="436.6201">CommandExecuter</text><rect fill="#EEEEEE" filter="url(#f1)" height="3" style="stroke: #EEEEEE; stroke-width: 1.0;" width="1085.5" x="3" y="68.8633"/><line style="stroke: #000000; stroke-width: 1.0;" x1="3" x2="1088.5" y1="68.8633" y2="68.8633"/><line style="stroke: #000000; stroke-width: 1.0;" x1="3" x2="1088.5" y1="71.8633" y2="71.8633"/><rect fill="#EEEEEE" filter="url(#f1)" height="23.1328" style="stroke: #000000; stroke-width: 2.0;" width="140" x="475.75" y="58.2969"/><text fill="#000000" font-family="sans-serif" font-size="13" font-weight="bold" lengthAdjust="spacingAndGlyphs" textLength="116" x="481.75" y="74.3638">Bring resources</text><polygon fill="#A80036" points="351.5,108.4297,361.5,112.4297,351.5,116.4297,355.5,112.4297" style="stroke: #A80036; stroke-width: 1.0;"/><line style="stroke: #A80036; stroke-width: 1.0;" x1="71.5" x2="357.5" y1="112.4297" y2="112.4297"/><text fill="#000000" font-family="sans-serif" font-size="13" lengthAdjust="spacingAndGlyphs" textLength="268" x="78.5" y="107.4966">resources = requestResourcesAndPaths()</text><polygon fill="#A80036" points="469.5,137.5625,479.5,141.5625,469.5,145.5625,473.5,141.5625" style="stroke: #A80036; stroke-width: 1.0;"/><line style="stroke: #A80036; stroke-width: 1.0;" x1="71.5" x2="475.5" y1="141.5625" y2="141.5625"/><text fill="#000000" font-family="sans-serif" font-size="13" lengthAdjust="spacingAndGlyphs" textLength="169" x="78.5" y="136.6294">saveResources(resources)</text><rect fill="#EEEEEE" filter="url(#f1)" height="3" style="stroke: #EEEEEE; stroke-width: 1.0;" width="1085.5" x="3" y="170.2617"/><line style="stroke: #000000; stroke-width: 1.0;" x1="3" x2="1088.5" y1="170.2617" y2="170.2617"/><line style="stroke: #000000; stroke-width: 1.0;" x1="3" x2="1088.5" y1="173.2617" y2="173.2617"/><rect fill="#EEEEEE" filter="url(#f1)" height="23.1328" style="stroke: #000000; stroke-width: 2.0;" width="178" x="456.75" y="159.6953"/><text fill="#000000" font-family="sans-serif" font-size="13" font-weight="bold" lengthAdjust="spacingAndGlyphs" textLength="154" x="462.75" y="175.7622">Generate commands</text><polygon fill="#A80036" points="492.5,209.8281,482.5,213.8281,492.5,217.8281,488.5,213.8281" style="stroke: #A80036; stroke-width: 1.0;"/><line style="stroke: #A80036; stroke-width: 1.0;" x1="486.5" x2="691.5" y1="213.8281" y2="213.8281"/><text fill="#000000" font-family="sans-serif" font-size="13" lengthAdjust="spacingAndGlyphs" textLength="187" x="498.5" y="208.895">resources = readResources()</text><line style="stroke: #A80036; stroke-width: 1.0;" x1="692.5" x2="734.5" y1="243.0938" y2="243.0938"/><line style="stroke: #A80036; stroke-width: 1.0;" x1="734.5" x2="734.5" y1="243.0938" y2="256.0938"/><line style="stroke: #A80036; stroke-width: 1.0;" x1="693.5" x2="734.5" y1="256.0938" y2="256.0938"/><polygon fill="#A80036" points="703.5,252.0938,693.5,256.0938,703.5,260.0938,699.5,256.0938" style="stroke: #A80036; stroke-width: 1.0;"/><text fill="#000000" font-family="sans-serif" font-size="13" lengthAdjust="spacingAndGlyphs" textLength="233" x="699.5" y="238.0278">commands = generateCommands()</text><polygon fill="#A80036" points="492.5,281.0938,482.5,285.0938,492.5,289.0938,488.5,285.0938" style="stroke: #A80036; stroke-width: 1.0;"/><line style="stroke: #A80036; stroke-width: 1.0;" x1="486.5" x2="691.5" y1="285.0938" y2="285.0938"/><text fill="#000000" font-family="sans-serif" font-size="13" lengthAdjust="spacingAndGlyphs" textLength="186" x="498.5" y="280.1606">saveCommands(commands)</text><rect fill="#EEEEEE" filter="url(#f1)" height="3" style="stroke: #EEEEEE; stroke-width: 1.0;" width="1085.5" x="3" y="313.793"/><line style="stroke: #000000; stroke-width: 1.0;" x1="3" x2="1088.5" y1="313.793" y2="313.793"/><line style="stroke: #000000; stroke-width: 1.0;" x1="3" x2="1088.5" y1="316.793" y2="316.793"/><rect fill="#EEEEEE" filter="url(#f1)" height="23.1328" style="stroke: #000000; stroke-width: 2.0;" width="168" x="461.75" y="303.2266"/><text fill="#000000" font-family="sans-serif" font-size="13" font-weight="bold" lengthAdjust="spacingAndGlyphs" textLength="144" x="467.75" y="319.2935">Execute commands</text><polygon fill="#A80036" points="492.5,353.3594,482.5,357.3594,492.5,361.3594,488.5,357.3594" style="stroke: #A80036; stroke-width: 1.0;"/><line style="stroke: #A80036; stroke-width: 1.0;" x1="486.5" x2="938.5" y1="357.3594" y2="357.3594"/><text fill="#000000" font-family="sans-serif" font-size="13" lengthAdjust="spacingAndGlyphs" textLength="204" x="498.5" y="352.4263">commands = readCommands()</text><line style="stroke: #A80036; stroke-width: 1.0;" x1="939.5" x2="981.5" y1="386.625" y2="386.625"/><line style="stroke: #A80036; stroke-width: 1.0;" x1="981.5" x2="981.5" y1="386.625" y2="399.625"/><line style="stroke: #A80036; stroke-width: 1.0;" x1="940.5" x2="981.5" y1="399.625" y2="399.625"/><polygon fill="#A80036" points="950.5,395.625,940.5,399.625,950.5,403.625,946.5,399.625" style="stroke: #A80036; stroke-width: 1.0;"/><text fill="#000000" font-family="sans-serif" font-size="13" lengthAdjust="spacingAndGlyphs" textLength="135" x="946.5" y="381.5591">executeCommands()</text></g></svg>