<?xml version="1.0" encoding="UTF-8" standalone="yes"?><svg xmlns="http://www.w3.org/2000/svg" xmlns:xlink="http://www.w3.org/1999/xlink" height="150px" style="width:474px;height:150px;" version="1.1" viewBox="0 0 474 150" width="474px"><defs><filter height="300%" id="f1" width="300%" x="-1" y="-1"><feGaussianBlur result="blurOut" stdDeviation="2.0"/><feColorMatrix in="blurOut" result="blurOut2" type="matrix" values="0 0 0 0 0 0 0 0 0 0 0 0 0 0 0 0 0 0 .4 0"/><feOffset dx="4.0" dy="4.0" in="blurOut2" result="blurOut3"/><feBlend in="SourceGraphic" in2="blurOut3" mode="normal"/></filter></defs><g><ellipse cx="243.5" cy="18" fill="#000000" filter="url(#f1)" rx="10" ry="10" style="stroke: none; stroke-width: 1.0;"/><rect fill="#F0BB1D" filter="url(#f1)" height="50" rx="12.5" ry="12.5" style="stroke: #A80036; stroke-width: 1.5;" width="93" x="197" y="90.5"/><line style="stroke: #A80036; stroke-width: 1.5;" x1="197" x2="290" y1="128.4375" y2="128.4375"/><text fill="#000000" font-family="sans-serif" font-size="24" font-weight="bold" lengthAdjust="spacingAndGlyphs" textLength="57" x="215" y="117.7773">r 2 r</text><rect fill="#FEFECE" filter="url(#f1)" height="52.5938" rx="12.5" ry="12.5" style="stroke: #A80036; stroke-width: 1.5;" width="106" x="359.5" y="89"/><line style="stroke: #A80036; stroke-width: 1.5;" x1="359.5" x2="465.5" y1="131.5938" y2="131.5938"/><text fill="#000000" font-family="sans-serif" font-size="14" font-weight="bold" lengthAdjust="spacingAndGlyphs" textLength="45" x="369.5" y="106.9951">Grails</text><text fill="#000000" font-family="sans-serif" font-size="14" lengthAdjust="spacingAndGlyphs" textLength="37" x="418.5" y="106.9951">REST</text><text fill="#000000" font-family="sans-serif" font-size="14" lengthAdjust="spacingAndGlyphs" textLength="74" x="375.5" y="123.292">application</text><rect fill="#99FF66" filter="url(#f1)" height="52.5938" rx="12.5" ry="12.5" style="stroke: #A80036; stroke-width: 1.5;" width="77" x="6" y="89"/><line style="stroke: #A80036; stroke-width: 1.5;" x1="6" x2="83" y1="131.5938" y2="131.5938"/><text fill="#000000" font-family="sans-serif" font-size="14" lengthAdjust="spacingAndGlyphs" textLength="38" x="25.5" y="106.9951">RAML</text><text fill="#000000" font-family="sans-serif" font-size="14" lengthAdjust="spacingAndGlyphs" textLength="57" x="16" y="123.292">Diagram</text><path d="M243.5,28.157 C243.5,41.13 243.5,65.4535 243.5,84.9863 " fill="none" style="stroke: #A80036; stroke-width: 1.0;"/><polygon fill="#A80036" points="243.5,90.355,247.5,81.355,243.5,85.355,239.5,81.355,243.5,90.355" style="stroke: #A80036; stroke-width: 1.0;"/><path d="M290.127,115.5 C310.026,115.5 333.458,115.5 354.464,115.5 " fill="none" style="stroke: #A80036; stroke-width: 1.0;"/><polygon fill="#A80036" points="359.466,115.5,350.466,111.5,354.466,115.5,350.466,119.5,359.466,115.5" style="stroke: #A80036; stroke-width: 1.0;"/><text fill="#000000" font-family="sans-serif" font-size="13" lengthAdjust="spacingAndGlyphs" textLength="24" x="312.75" y="108.5669">into</text><path d="M88.3915,115.5 C120.485,115.5 163.949,115.5 196.703,115.5 " fill="none" style="stroke: #A80036; stroke-width: 1.0;"/><polygon fill="#A80036" points="83.3416,115.5,92.3416,119.5,88.3416,115.5,92.3416,111.5,83.3416,115.5" style="stroke: #A80036; stroke-width: 1.0;"/><text fill="#000000" font-family="sans-serif" font-size="13" font-weight="bold" lengthAdjust="spacingAndGlyphs" textLength="77" x="101.5" y="108.5669">converts a</text></g></svg>