<?xml version="1.0" encoding="UTF-8" standalone="yes"?><svg xmlns="http://www.w3.org/2000/svg" xmlns:xlink="http://www.w3.org/1999/xlink" height="529px" style="width:1609px;height:529px;" version="1.1" viewBox="0 0 1609 529" width="1609px"><defs><filter height="300%" id="f1" width="300%" x="-1" y="-1"><feGaussianBlur result="blurOut" stdDeviation="2.0"/><feColorMatrix in="blurOut" result="blurOut2" type="matrix" values="0 0 0 0 0 0 0 0 0 0 0 0 0 0 0 0 0 0 .4 0"/><feOffset dx="4.0" dy="4.0" in="blurOut2" result="blurOut3"/><feBlend in="SourceGraphic" in2="blurOut3" mode="normal"/></filter></defs><g><rect fill="#FEFECE" filter="url(#f1)" height="164.2969" rx="12.5" ry="12.5" style="stroke: #A80036; stroke-width: 1.5;" width="491" x="6" y="183"/><rect fill="#FFFFFF" height="132" rx="12.5" ry="12.5" style="stroke: #FFFFFF; stroke-width: 1.0;" width="485" x="9" y="212.2969"/><line style="stroke: #A80036; stroke-width: 1.5;" x1="6" x2="497" y1="209.2969" y2="209.2969"/><text fill="#000000" font-family="sans-serif" font-size="14" lengthAdjust="spacingAndGlyphs" textLength="93" x="205" y="200.9951">What it does?</text><ellipse cx="267.5" cy="232.2969" fill="#000000" filter="url(#f1)" rx="10" ry="10" style="stroke: none; stroke-width: 1.0;"/><rect fill="#F0BB1D" filter="url(#f1)" height="50" rx="12.5" ry="12.5" style="stroke: #A80036; stroke-width: 1.5;" width="93" x="221" y="280.7969"/><line style="stroke: #A80036; stroke-width: 1.5;" x1="221" x2="314" y1="318.7344" y2="318.7344"/><text fill="#000000" font-family="sans-serif" font-size="24" font-weight="bold" lengthAdjust="spacingAndGlyphs" textLength="57" x="239" y="308.0742">r 2 r</text><rect fill="#FEFECE" filter="url(#f1)" height="52.5938" rx="12.5" ry="12.5" style="stroke: #A80036; stroke-width: 1.5;" width="106" x="357.5" y="279.2969"/><line style="stroke: #A80036; stroke-width: 1.5;" x1="357.5" x2="463.5" y1="321.8906" y2="321.8906"/><text fill="#000000" font-family="sans-serif" font-size="14" font-weight="bold" lengthAdjust="spacingAndGlyphs" textLength="45" x="367.5" y="297.292">Grails</text><text fill="#000000" font-family="sans-serif" font-size="14" lengthAdjust="spacingAndGlyphs" textLength="37" x="416.5" y="297.292">REST</text><text fill="#000000" font-family="sans-serif" font-size="14" lengthAdjust="spacingAndGlyphs" textLength="74" x="373.5" y="313.5889">application</text><rect fill="#99FF66" filter="url(#f1)" height="52.5938" rx="12.5" ry="12.5" style="stroke: #A80036; stroke-width: 1.5;" width="107" x="17" y="279.2969"/><line style="stroke: #A80036; stroke-width: 1.5;" x1="17" x2="124" y1="321.8906" y2="321.8906"/><text fill="#000000" font-family="sans-serif" font-size="14" lengthAdjust="spacingAndGlyphs" textLength="38" x="51.5" y="297.292">RAML</text><text fill="#000000" font-family="sans-serif" font-size="14" lengthAdjust="spacingAndGlyphs" textLength="87" x="27" y="313.5889">Specification</text><path d="M267.5,242.3524 C267.5,250.7698 267.5,263.7742 267.5,275.7409 " fill="none" style="stroke: #A80036; stroke-width: 1.0;"/><polygon fill="#A80036" points="267.5,280.7895,271.5,271.7895,267.5,275.7895,263.5,271.7895,267.5,280.7895" style="stroke: #A80036; stroke-width: 1.0;"/><path d="M314.324,305.7969 C326.476,305.7969 339.713,305.7969 352.37,305.7969 " fill="none" style="stroke: #A80036; stroke-width: 1.0;"/><polygon fill="#A80036" points="357.376,305.7969,348.376,301.7969,352.376,305.7969,348.376,309.7969,357.376,305.7969" style="stroke: #A80036; stroke-width: 1.0;"/><text fill="#000000" font-family="sans-serif" font-size="13" lengthAdjust="spacingAndGlyphs" textLength="24" x="323.75" y="298.8638">into</text><path d="M129.105,305.7969 C158.458,305.7969 193.497,305.7969 220.975,305.7969 " fill="none" style="stroke: #A80036; stroke-width: 1.0;"/><polygon fill="#A80036" points="124.071,305.7969,133.071,309.7969,129.071,305.7969,133.071,301.7969,124.071,305.7969" style="stroke: #A80036; stroke-width: 1.0;"/><text fill="#000000" font-family="sans-serif" font-size="13" font-weight="bold" lengthAdjust="spacingAndGlyphs" textLength="77" x="134" y="298.8638">converts a</text><rect fill="#FEFECE" filter="url(#f1)" height="514.2969" rx="12.5" ry="12.5" style="stroke: #A80036; stroke-width: 1.5;" width="1070" x="532.5" y="8"/><rect fill="#FFFFFF" height="482" rx="12.5" ry="12.5" style="stroke: #FFFFFF; stroke-width: 1.0;" width="1064" x="535.5" y="37.2969"/><line style="stroke: #A80036; stroke-width: 1.5;" x1="532.5" x2="1602.5" y1="34.2969" y2="34.2969"/><text fill="#000000" font-family="sans-serif" font-size="14" lengthAdjust="spacingAndGlyphs" textLength="90" x="1022.5" y="25.9951">Components</text><rect fill="#6699FF" filter="url(#f1)" height="50" rx="12.5" ry="12.5" style="stroke: #A80036; stroke-width: 1.5;" width="81" x="598" y="457.2969"/><line style="stroke: #A80036; stroke-width: 1.5;" x1="598" x2="679" y1="483.5938" y2="483.5938"/><text fill="#000000" font-family="sans-serif" font-size="14" lengthAdjust="spacingAndGlyphs" textLength="61" x="608" y="475.292">RAMLFile</text><rect fill="#6699FF" filter="url(#f1)" height="50" rx="12.5" ry="12.5" style="stroke: #A80036; stroke-width: 1.5;" width="99" x="1021" y="180.2969"/><line style="stroke: #A80036; stroke-width: 1.5;" x1="1021" x2="1120" y1="206.5938" y2="206.5938"/><text fill="#000000" font-family="sans-serif" font-size="14" lengthAdjust="spacingAndGlyphs" textLength="79" x="1031" y="198.292">Commands</text><rect fill="#6699FF" filter="url(#f1)" height="50" rx="12.5" ry="12.5" style="stroke: #A80036; stroke-width: 1.5;" width="86" x="828.5" y="457.2969"/><line style="stroke: #A80036; stroke-width: 1.5;" x1="828.5" x2="914.5" y1="483.5938" y2="483.5938"/><text fill="#000000" font-family="sans-serif" font-size="14" lengthAdjust="spacingAndGlyphs" textLength="66" x="838.5" y="475.292">Database</text><rect fill="#6699FF" filter="url(#f1)" height="50" rx="12.5" ry="12.5" style="stroke: #A80036; stroke-width: 1.5;" width="210" x="1010.5" y="457.2969"/><line style="stroke: #A80036; stroke-width: 1.5;" x1="1010.5" x2="1220.5" y1="483.5938" y2="483.5938"/><text fill="#000000" font-family="sans-serif" font-size="14" lengthAdjust="spacingAndGlyphs" textLength="190" x="1020.5" y="475.292">RESTDefinitionsStatements</text><rect fill="#6699FF" filter="url(#f1)" height="50" rx="12.5" ry="12.5" style="stroke: #A80036; stroke-width: 1.5;" width="247" x="1246" y="457.2969"/><line style="stroke: #A80036; stroke-width: 1.5;" x1="1246" x2="1493" y1="483.5938" y2="483.5938"/><text fill="#000000" font-family="sans-serif" font-size="14" lengthAdjust="spacingAndGlyphs" textLength="227" x="1256" y="475.292">RESTProjectInCertainTechnology</text><rect fill="#FEFECE" filter="url(#f1)" height="50.2656" rx="12.5" ry="12.5" style="stroke: #A80036; stroke-width: 1.5;" width="286" x="927.5" y="47.2969"/><line style="stroke: #A80036; stroke-width: 1.5;" x1="927.5" x2="1213.5" y1="73.5938" y2="73.5938"/><text fill="#000000" font-family="sans-serif" font-size="14" font-weight="bold" lengthAdjust="spacingAndGlyphs" textLength="95" x="1023" y="65.292">Commander</text><text fill="#000000" font-family="sans-serif" font-size="12" lengthAdjust="spacingAndGlyphs" textLength="266" x="932.5" y="89.7324">In charge of interpret orders from terminal</text><rect fill="#FEFECE" filter="url(#f1)" height="64.2344" rx="12.5" ry="12.5" style="stroke: #A80036; stroke-width: 1.5;" width="250" x="543.5" y="304.2969"/><line style="stroke: #A80036; stroke-width: 1.5;" x1="543.5" x2="793.5" y1="330.5938" y2="330.5938"/><text fill="#000000" font-family="sans-serif" font-size="14" font-weight="bold" lengthAdjust="spacingAndGlyphs" textLength="212" x="562.5" y="322.292">RESTResourcesRecollector</text><text fill="#000000" font-family="sans-serif" font-size="12" lengthAdjust="spacingAndGlyphs" textLength="230" x="548.5" y="346.7324">Collect Resources from RAML file and</text><text fill="#000000" font-family="sans-serif" font-size="12" lengthAdjust="spacingAndGlyphs" textLength="160" x="548.5" y="360.7012">persist them to database</text><rect fill="#FEFECE" filter="url(#f1)" height="78.2031" rx="12.5" ry="12.5" style="stroke: #A80036; stroke-width: 1.5;" width="251" x="812" y="297.2969"/><line style="stroke: #A80036; stroke-width: 1.5;" x1="812" x2="1063" y1="323.5938" y2="323.5938"/><text fill="#000000" font-family="sans-serif" font-size="14" font-weight="bold" lengthAdjust="spacingAndGlyphs" textLength="183" x="846" y="315.292">RESTDefinitionsCreator</text><text fill="#000000" font-family="sans-serif" font-size="12" lengthAdjust="spacingAndGlyphs" textLength="231" x="817" y="339.7324">Takes Resources from database and</text><text fill="#000000" font-family="sans-serif" font-size="12" lengthAdjust="spacingAndGlyphs" textLength="207" x="817" y="353.7012">creates Statements which define</text><text fill="#000000" font-family="sans-serif" font-size="12" lengthAdjust="spacingAndGlyphs" textLength="79" x="817" y="367.6699">the REST API</text><rect fill="#FEFECE" filter="url(#f1)" height="106.1406" rx="12.5" ry="12.5" style="stroke: #A80036; stroke-width: 1.5;" width="245" x="1081" y="283.2969"/><line style="stroke: #A80036; stroke-width: 1.5;" x1="1081" x2="1326" y1="309.5938" y2="309.5938"/><text fill="#000000" font-family="sans-serif" font-size="14" font-weight="bold" lengthAdjust="spacingAndGlyphs" textLength="85" x="1161" y="301.292">APICreator</text><text fill="#000000" font-family="sans-serif" font-size="12" lengthAdjust="spacingAndGlyphs" textLength="190" x="1086" y="325.7324">Takes the Statements convert</text><text fill="#000000" font-family="sans-serif" font-size="12" lengthAdjust="spacingAndGlyphs" textLength="225" x="1086" y="339.7012">them into verbs compatible with the</text><text fill="#000000" font-family="sans-serif" font-size="12" lengthAdjust="spacingAndGlyphs" textLength="213" x="1086" y="353.6699">technology in which the API will be</text><text fill="#000000" font-family="sans-serif" font-size="12" lengthAdjust="spacingAndGlyphs" textLength="56" x="1086" y="367.6387">defined (</text><text fill="#000000" font-family="sans-serif" font-size="12" font-weight="bold" lengthAdjust="spacingAndGlyphs" textLength="84" x="1142" y="367.6387">Commander</text><text fill="#000000" font-family="sans-serif" font-size="12" lengthAdjust="spacingAndGlyphs" textLength="55" x="1230" y="367.6387">might be</text><text fill="#000000" font-family="sans-serif" font-size="12" lengthAdjust="spacingAndGlyphs" textLength="223" x="1086" y="381.6074">used to execute these statements)</text><rect fill="#FEFECE" filter="url(#f1)" height="50.2656" rx="12.5" ry="12.5" style="stroke: #A80036; stroke-width: 1.5;" width="225" x="1344" y="311.2969"/><line style="stroke: #A80036; stroke-width: 1.5;" x1="1344" x2="1569" y1="337.5938" y2="337.5938"/><text fill="#000000" font-family="sans-serif" font-size="14" font-weight="bold" lengthAdjust="spacingAndGlyphs" textLength="95" x="1409" y="329.292">APIValidator</text><text fill="#000000" font-family="sans-serif" font-size="12" lengthAdjust="spacingAndGlyphs" textLength="205" x="1349" y="353.7324">In charge of test the api created</text><path d="M1020.691,219.1619 C966.564,233.4769 877.737,257.9479 802.5,283.2969 C785.315,289.0869 767.09,295.7799 749.799,302.3959 " fill="none" style="stroke: #A80036; stroke-width: 1.0;"/><polygon fill="#A80036" points="744.948,304.2599,754.7838,304.7665,749.6155,302.4669,751.9151,297.2985,744.948,304.2599" style="stroke: #A80036; stroke-width: 1.0;"/><text fill="#000000" font-family="sans-serif" font-size="13" lengthAdjust="spacingAndGlyphs" textLength="74" x="913.5" y="261.3638">orchestrate</text><path d="M1045.484,230.5609 C1027.203,248.2919 1001.958,272.7779 980.473,293.6159 " fill="none" style="stroke: #A80036; stroke-width: 1.0;"/><polygon fill="#A80036" points="976.785,297.1939,986.0299,293.798,980.3737,293.7123,980.4594,288.0561,976.785,297.1939" style="stroke: #A80036; stroke-width: 1.0;"/><text fill="#000000" font-family="sans-serif" font-size="13" lengthAdjust="spacingAndGlyphs" textLength="74" x="1025.5" y="261.3638">orchestrate</text><path d="M1095.516,230.5609 C1109.718,244.3349 1128.121,262.1849 1145.7,279.2349 " fill="none" style="stroke: #A80036; stroke-width: 1.0;"/><polygon fill="#A80036" points="1149.672,283.0879,1145.9958,273.9508,1146.0826,279.607,1140.4264,279.6939,1149.672,283.0879" style="stroke: #A80036; stroke-width: 1.0;"/><text fill="#000000" font-family="sans-serif" font-size="13" lengthAdjust="spacingAndGlyphs" textLength="74" x="1130.5" y="261.3638">orchestrate</text><path d="M1120.204,218.8979 C1173.696,232.8979 1260.996,257.0179 1334.5,283.2969 C1355.876,290.9389 1378.883,300.4079 1399.094,309.1629 " fill="none" style="stroke: #A80036; stroke-width: 1.0;"/><polygon fill="#A80036" points="1403.899,311.2529,1397.2418,303.9947,1399.3141,309.2583,1394.0504,311.3306,1403.899,311.2529" style="stroke: #A80036; stroke-width: 1.0;"/><text fill="#000000" font-family="sans-serif" font-size="13" lengthAdjust="spacingAndGlyphs" textLength="74" x="1278.5" y="261.3638">orchestrate</text><path d="M1070.5,97.3239 C1070.5,119.1619 1070.5,151.4469 1070.5,174.8329 " fill="none" style="stroke: #A80036; stroke-width: 1.0;"/><polygon fill="#A80036" points="1070.5,179.9779,1074.5,170.9779,1070.5,174.9779,1066.5,170.9779,1070.5,179.9779" style="stroke: #A80036; stroke-width: 1.0;"/><text fill="#000000" font-family="sans-serif" font-size="13" lengthAdjust="spacingAndGlyphs" textLength="125" x="1071.5" y="128.3638">in charge of give an</text><text fill="#000000" font-family="sans-serif" font-size="13" lengthAdjust="spacingAndGlyphs" textLength="104" x="1082" y="143.4966">interpretation to</text><text fill="#000000" font-family="sans-serif" font-size="13" lengthAdjust="spacingAndGlyphs" textLength="72" x="1098" y="158.6294">commands</text><path d="M652.581,368.5469 C647.361,380.3729 642.2069,394.1549 639.5,407.2969 C636.5252,421.7393 636.0166,438.1047 636.361,451.7664 " fill="none" style="stroke: #A80036; stroke-width: 1.0;"/><polygon fill="#A80036" points="636.5394,457.0532,640.2334,447.9233,636.3707,452.056,632.238,448.1933,636.5394,457.0532" style="stroke: #A80036; stroke-width: 1.0;"/><text fill="#000000" font-family="sans-serif" font-size="13" lengthAdjust="spacingAndGlyphs" textLength="143" x="640.5" y="427.8638">Reads Resources from</text><path d="M732.454,368.2979 C750.611,379.0169 769.502,392.1909 784.5,407.2969 C796.154,419.0343 791.907,427.4994 803.5,439.2969 C809.46,445.362 816.463,450.93 823.668,455.8915 " fill="none" style="stroke: #A80036; stroke-width: 1.0;"/><polygon fill="#A80036" points="828.173,458.9014,822.9109,450.5761,824.0153,456.1241,818.4673,457.2285,828.173,458.9014" style="stroke: #A80036; stroke-width: 1.0;"/><text fill="#000000" font-family="sans-serif" font-size="13" lengthAdjust="spacingAndGlyphs" textLength="106" x="804.5" y="420.3638">Saves resources</text><text fill="#000000" font-family="sans-serif" font-size="13" lengthAdjust="spacingAndGlyphs" textLength="88" x="813.5" y="435.4966">into database</text><path d="M934.672,375.5419 C931.892,395.5499 926.388,419.8562 915.5,439.2969 C912.734,444.2349 909.198,448.9461 905.336,453.309 " fill="none" style="stroke: #A80036; stroke-width: 1.0;"/><polygon fill="#A80036" points="901.709,457.2144,910.7642,453.3409,905.1112,453.5503,904.9017,447.8974,901.709,457.2144" style="stroke: #A80036; stroke-width: 1.0;"/><text fill="#000000" font-family="sans-serif" font-size="13" lengthAdjust="spacingAndGlyphs" textLength="104" x="929.5" y="420.3638">Takes resources</text><text fill="#000000" font-family="sans-serif" font-size="13" lengthAdjust="spacingAndGlyphs" textLength="30" x="966.5" y="435.4966">from</text><path d="M995.815,375.3659 C1010.104,385.3269 1025.126,396.3529 1038.5,407.2969 C1056.093,421.6932 1074.497,439.2741 1088.899,453.6868 " fill="none" style="stroke: #A80036; stroke-width: 1.0;"/><polygon fill="#A80036" points="1092.471,457.2789,1088.9596,448.0772,1088.9448,453.7341,1083.2879,453.7192,1092.471,457.2789" style="stroke: #A80036; stroke-width: 1.0;"/><text fill="#000000" font-family="sans-serif" font-size="13" lengthAdjust="spacingAndGlyphs" textLength="67" x="1074.5" y="427.8638">Generates</text><path d="M1187.144,389.3729 C1180.585,406.1259 1172.043,424.2354 1161.5,439.2969 C1158.012,444.2803 1153.835,449.1015 1149.442,453.5911 " fill="none" style="stroke: #A80036; stroke-width: 1.0;"/><polygon fill="#A80036" points="1145.711,457.2808,1154.923,453.7967,1149.2663,453.7651,1149.2979,448.1083,1145.711,457.2808" style="stroke: #A80036; stroke-width: 1.0;"/><text fill="#000000" font-family="sans-serif" font-size="13" lengthAdjust="spacingAndGlyphs" textLength="32" x="1180.5" y="427.8638">Uses</text><path d="M1263.899,389.6919 C1288.859,411.343 1316.77,435.5549 1337.626,453.647 " fill="none" style="stroke: #A80036; stroke-width: 1.0;"/><polygon fill="#A80036" points="1341.436,456.952,1337.2596,448.0325,1337.6594,453.6752,1332.0167,454.075,1341.436,456.952" style="stroke: #A80036; stroke-width: 1.0;"/><text fill="#000000" font-family="sans-serif" font-size="13" lengthAdjust="spacingAndGlyphs" textLength="67" x="1321.5" y="427.8638">Generates</text><path d="M1442.703,361.3639 C1430.71,382.1349 1412.756,412.8741 1396.5,439.2969 C1393.843,443.616 1390.99,448.1543 1388.17,452.5862 " fill="none" style="stroke: #A80036; stroke-width: 1.0;"/><polygon fill="#A80036" points="1385.369,456.9705,1393.5847,451.5389,1388.0605,452.7567,1386.8427,447.2325,1385.369,456.9705" style="stroke: #A80036; stroke-width: 1.0;"/><text fill="#000000" font-family="sans-serif" font-size="13" lengthAdjust="spacingAndGlyphs" textLength="59" x="1416.5" y="427.8638">Validates</text></g></svg>